<svg width="184" height="232" viewBox="0 0 184 232" fill="none" xmlns="http://www.w3.org/2000/svg">
<g filter="url(#filter0_dd_1_827)">
<circle cx="111.107" cy="203.897" r="12.2538" fill="url(#paint0_linear_1_827)" shape-rendering="crispEdges"/>
</g>
<g filter="url(#filter1_dd_1_827)">
<circle cx="148.477" cy="164.787" r="9.06551" fill="url(#paint1_linear_1_827)" shape-rendering="crispEdges"/>
</g>
<circle cx="92" cy="92" r="92" fill="url(#paint2_radial_1_827)" fill-opacity="0.6"/>
<g filter="url(#filter2_d_1_827)">
<ellipse cx="110.924" cy="112.638" rx="55.1219" ry="34.5323" fill="url(#paint3_linear_1_827)" fill-opacity="0.5" shape-rendering="crispEdges"/>
<path d="M165.813 112.638C165.813 122.065 159.713 130.634 149.777 136.859C139.845 143.081 126.108 146.937 110.924 146.937C95.7389 146.937 82.0027 143.081 72.0701 136.859C62.1344 130.634 56.0345 122.065 56.0345 112.638C56.0345 103.211 62.1344 94.6415 72.0701 88.417C82.0027 82.1946 95.7389 78.3383 110.924 78.3383C126.108 78.3383 139.845 82.1946 149.777 88.417C159.713 94.6415 165.813 103.211 165.813 112.638Z" stroke="url(#paint4_linear_1_827)" stroke-opacity="0.6" stroke-width="0.465527" shape-rendering="crispEdges"/>
</g>
<circle cx="110.923" cy="80.4379" r="69.9308" fill="url(#paint5_radial_1_827)"/>
<ellipse cx="110.923" cy="92.0002" rx="68.3691" ry="39.9973" fill="url(#paint6_linear_1_827)" fill-opacity="0.5"/>
<path d="M179.059 92.0002C179.059 102.928 171.486 112.865 159.15 120.082C146.819 127.295 129.769 131.765 110.923 131.765C92.0771 131.765 75.0269 127.295 62.6961 120.082C50.3597 112.865 42.7865 102.928 42.7865 92.0002C42.7865 81.0721 50.3597 71.1358 62.6961 63.9188C75.0269 56.705 92.0771 52.2357 110.923 52.2357C129.769 52.2357 146.819 56.705 159.15 63.9188C171.486 71.1358 179.059 81.0721 179.059 92.0002Z" stroke="url(#paint7_linear_1_827)" stroke-opacity="0.6" stroke-width="0.465527"/>
<circle cx="110.923" cy="80.4377" r="51.7992" fill="url(#paint8_radial_1_827)"/>
<circle cx="110.923" cy="80.4377" r="51.7992" fill="url(#paint9_radial_1_827)"/>
<g filter="url(#filter3_d_1_827)">
<ellipse cx="110.923" cy="67.1682" rx="67.6737" ry="39.0723" fill="url(#paint10_linear_1_827)" fill-opacity="0.5" shape-rendering="crispEdges"/>
<path d="M178.364 67.1682C178.364 77.8393 170.871 87.5445 158.659 94.5949C146.454 101.642 129.577 106.008 110.923 106.008C92.2689 106.008 75.3921 101.642 63.1869 94.5949C50.9755 87.5445 43.4821 77.8393 43.4821 67.1682C43.4821 56.497 50.9755 46.7918 63.1869 39.7415C75.3921 32.6946 92.2689 28.3286 110.923 28.3286C129.577 28.3286 146.454 32.6946 158.659 39.7415C170.871 46.7918 178.364 56.497 178.364 67.1682Z" stroke="url(#paint11_linear_1_827)" stroke-opacity="0.6" stroke-width="0.465527" shape-rendering="crispEdges"/>
</g>
<g filter="url(#filter4_d_1_827)">
<ellipse cx="110.923" cy="46.9919" rx="52.5128" ry="33.9429" fill="url(#paint12_linear_1_827)" fill-opacity="0.5" shape-rendering="crispEdges"/>
<path d="M163.203 46.9919C163.203 56.2596 157.391 64.6815 147.929 70.7977C138.469 76.9124 125.386 80.7021 110.923 80.7021C96.46 80.7021 83.3771 76.9124 73.9171 70.7977C64.4547 64.6815 58.6428 56.2596 58.6428 46.9919C58.6428 37.7243 64.4547 29.3024 73.9171 23.1861C83.3771 17.0714 96.46 13.2818 110.923 13.2818C125.386 13.2818 138.469 17.0714 147.929 23.1861C157.391 29.3024 163.203 37.7243 163.203 46.9919Z" stroke="url(#paint13_linear_1_827)" stroke-opacity="0.6" stroke-width="0.465527" shape-rendering="crispEdges"/>
</g>
<ellipse cx="110.924" cy="35.2025" rx="32.6853" ry="22.1535" fill="url(#paint14_linear_1_827)" fill-opacity="0.5"/>
<path d="M143.376 35.2025C143.376 41.2198 139.778 46.6942 133.905 50.6747C128.034 54.6543 119.909 57.1232 110.924 57.1232C101.938 57.1232 93.8137 54.6543 87.9422 50.6747C82.0695 46.6942 78.4711 41.2198 78.4711 35.2025C78.4711 29.1852 82.0695 23.7107 87.9422 19.7303C93.8137 15.7507 101.938 13.2818 110.924 13.2818C119.909 13.2818 128.034 15.7507 133.905 19.7303C139.778 23.7107 143.376 29.1852 143.376 35.2025Z" stroke="url(#paint15_linear_1_827)" stroke-opacity="0.6" stroke-width="0.465527"/>
<ellipse cx="110.923" cy="27.6398" rx="18.9232" ry="13.0204" fill="url(#paint16_linear_1_827)" fill-opacity="0.5"/>
<path d="M129.614 27.6398C129.614 31.1367 127.554 34.3279 124.172 36.6549C120.791 38.9812 116.108 40.4275 110.923 40.4275C105.739 40.4275 101.056 38.9812 97.6746 36.6549C94.2927 34.3279 92.2329 31.1367 92.2329 27.6398C92.2329 24.143 94.2927 20.9518 97.6746 18.6248C101.056 16.2985 105.739 14.8522 110.923 14.8522C116.108 14.8522 120.791 16.2985 124.172 18.6248C127.554 20.9518 129.614 24.143 129.614 27.6398Z" stroke="url(#paint17_linear_1_827)" stroke-opacity="0.6" stroke-width="0.465527"/>
<circle cx="110.923" cy="80.4378" r="69.9308" fill="url(#paint18_radial_1_827)" fill-opacity="0.3"/>
<defs>
<filter id="filter0_dd_1_827" x="82.5602" y="174.418" width="57.0946" height="57.0946" filterUnits="userSpaceOnUse" color-interpolation-filters="sRGB">
<feFlood flood-opacity="0" result="BackgroundImageFix"/>
<feColorMatrix in="SourceAlpha" type="matrix" values="0 0 0 0 0 0 0 0 0 0 0 0 0 0 0 0 0 0 127 0" result="hardAlpha"/>
<feOffset dy="-0.931053"/>
<feGaussianBlur stdDeviation="8.14672"/>
<feComposite in2="hardAlpha" operator="out"/>
<feColorMatrix type="matrix" values="0 0 0 0 0.371081 0 0 0 0 0.235903 0 0 0 0 0.658333 0 0 0 1 0"/>
<feBlend mode="normal" in2="BackgroundImageFix" result="effect1_dropShadow_1_827"/>
<feColorMatrix in="SourceAlpha" type="matrix" values="0 0 0 0 0 0 0 0 0 0 0 0 0 0 0 0 0 0 127 0" result="hardAlpha"/>
<feOffset dy="-0.931053"/>
<feGaussianBlur stdDeviation="4.65527"/>
<feComposite in2="hardAlpha" operator="out"/>
<feColorMatrix type="matrix" values="0 0 0 0 0.48825 0 0 0 0 0.372778 0 0 0 0 0.733333 0 0 0 1 0"/>
<feBlend mode="normal" in2="effect1_dropShadow_1_827" result="effect2_dropShadow_1_827"/>
<feBlend mode="normal" in="SourceGraphic" in2="effect2_dropShadow_1_827" result="shape"/>
</filter>
<filter id="filter1_dd_1_827" x="123.118" y="138.497" width="50.7179" height="50.7179" filterUnits="userSpaceOnUse" color-interpolation-filters="sRGB">
<feFlood flood-opacity="0" result="BackgroundImageFix"/>
<feColorMatrix in="SourceAlpha" type="matrix" values="0 0 0 0 0 0 0 0 0 0 0 0 0 0 0 0 0 0 127 0" result="hardAlpha"/>
<feOffset dy="-0.931053"/>
<feGaussianBlur stdDeviation="8.14672"/>
<feComposite in2="hardAlpha" operator="out"/>
<feColorMatrix type="matrix" values="0 0 0 0 0.371081 0 0 0 0 0.235903 0 0 0 0 0.658333 0 0 0 1 0"/>
<feBlend mode="normal" in2="BackgroundImageFix" result="effect1_dropShadow_1_827"/>
<feColorMatrix in="SourceAlpha" type="matrix" values="0 0 0 0 0 0 0 0 0 0 0 0 0 0 0 0 0 0 127 0" result="hardAlpha"/>
<feOffset dy="-0.931053"/>
<feGaussianBlur stdDeviation="4.65527"/>
<feComposite in2="hardAlpha" operator="out"/>
<feColorMatrix type="matrix" values="0 0 0 0 0.48825 0 0 0 0 0.372778 0 0 0 0 0.733333 0 0 0 1 0"/>
<feBlend mode="normal" in2="effect1_dropShadow_1_827" result="effect2_dropShadow_1_827"/>
<feBlend mode="normal" in="SourceGraphic" in2="effect2_dropShadow_1_827" result="shape"/>
</filter>
<filter id="filter2_d_1_827" x="51.1465" y="73.9158" width="119.554" height="78.3752" filterUnits="userSpaceOnUse" color-interpolation-filters="sRGB">
<feFlood flood-opacity="0" result="BackgroundImageFix"/>
<feColorMatrix in="SourceAlpha" type="matrix" values="0 0 0 0 0 0 0 0 0 0 0 0 0 0 0 0 0 0 127 0" result="hardAlpha"/>
<feOffset dy="0.465527"/>
<feGaussianBlur stdDeviation="2.32763"/>
<feComposite in2="hardAlpha" operator="out"/>
<feColorMatrix type="matrix" values="0 0 0 0 0.440043 0 0 0 0 0.20092 0 0 0 0 0.679167 0 0 0 0.3 0"/>
<feBlend mode="normal" in2="BackgroundImageFix" result="effect1_dropShadow_1_827"/>
<feBlend mode="normal" in="SourceGraphic" in2="effect1_dropShadow_1_827" result="shape"/>
</filter>
<filter id="filter3_d_1_827" x="40.9217" y="26.2338" width="140.003" height="82.7998" filterUnits="userSpaceOnUse" color-interpolation-filters="sRGB">
<feFlood flood-opacity="0" result="BackgroundImageFix"/>
<feColorMatrix in="SourceAlpha" type="matrix" values="0 0 0 0 0 0 0 0 0 0 0 0 0 0 0 0 0 0 127 0" result="hardAlpha"/>
<feOffset dy="0.465527"/>
<feGaussianBlur stdDeviation="1.16382"/>
<feComposite in2="hardAlpha" operator="out"/>
<feColorMatrix type="matrix" values="0 0 0 0 0.369333 0 0 0 0 0.0916667 0 0 0 0 0.5 0 0 0 0.15 0"/>
<feBlend mode="normal" in2="BackgroundImageFix" result="effect1_dropShadow_1_827"/>
<feBlend mode="normal" in="SourceGraphic" in2="effect1_dropShadow_1_827" result="shape"/>
</filter>
<filter id="filter4_d_1_827" x="55.3841" y="10.0231" width="112.009" height="74.8687" filterUnits="userSpaceOnUse" color-interpolation-filters="sRGB">
<feFlood flood-opacity="0" result="BackgroundImageFix"/>
<feColorMatrix in="SourceAlpha" type="matrix" values="0 0 0 0 0 0 0 0 0 0 0 0 0 0 0 0 0 0 127 0" result="hardAlpha"/>
<feOffset dx="0.465527" dy="0.465527"/>
<feGaussianBlur stdDeviation="1.74573"/>
<feComposite in2="hardAlpha" operator="out"/>
<feColorMatrix type="matrix" values="0 0 0 0 0.440043 0 0 0 0 0.20092 0 0 0 0 0.679167 0 0 0 0.2 0"/>
<feBlend mode="normal" in2="BackgroundImageFix" result="effect1_dropShadow_1_827"/>
<feBlend mode="normal" in="SourceGraphic" in2="effect1_dropShadow_1_827" result="shape"/>
</filter>
<linearGradient id="paint0_linear_1_827" x1="111.107" y1="186.315" x2="111.107" y2="229.292" gradientUnits="userSpaceOnUse">
<stop stop-color="white"/>
<stop offset="0.223958" stop-color="#6BE4FF"/>
<stop offset="0.623188" stop-color="#371B73" stop-opacity="0.6"/>
<stop offset="1" stop-color="#0A1153" stop-opacity="0.4"/>
</linearGradient>
<linearGradient id="paint1_linear_1_827" x1="148.477" y1="151.779" x2="148.477" y2="183.574" gradientUnits="userSpaceOnUse">
<stop stop-color="white"/>
<stop offset="0.223958" stop-color="#6BE4FF"/>
<stop offset="0.623188" stop-color="#371B73" stop-opacity="0.6"/>
<stop offset="1" stop-color="#0A1153" stop-opacity="0.4"/>
</linearGradient>
<radialGradient id="paint2_radial_1_827" cx="0" cy="0" r="1" gradientUnits="userSpaceOnUse" gradientTransform="translate(92 92) rotate(90) scale(92)">
<stop stop-color="#FF65C1"/>
<stop offset="1" stop-color="#FF65C1" stop-opacity="0"/>
</radialGradient>
<linearGradient id="paint3_linear_1_827" x1="110.924" y1="78.1055" x2="110.924" y2="147.17" gradientUnits="userSpaceOnUse">
<stop stop-color="#13154D"/>
<stop offset="1" stop-color="#8E92EE" stop-opacity="0"/>
</linearGradient>
<linearGradient id="paint4_linear_1_827" x1="138.301" y1="116.992" x2="141.42" y2="151.829" gradientUnits="userSpaceOnUse">
<stop stop-color="white" stop-opacity="0"/>
<stop offset="1" stop-color="white"/>
</linearGradient>
<radialGradient id="paint5_radial_1_827" cx="0" cy="0" r="1" gradientUnits="userSpaceOnUse" gradientTransform="translate(40.9924 105.877) rotate(-19.6638) scale(148.523)">
<stop offset="0.249306" stop-color="white"/>
<stop offset="0.48315" stop-color="#FF8FED" stop-opacity="0.5"/>
<stop offset="0.627037" stop-color="#220C7A" stop-opacity="0.5"/>
</radialGradient>
<linearGradient id="paint6_linear_1_827" x1="48.133" y1="100.501" x2="177.718" y2="85.8744" gradientUnits="userSpaceOnUse">
<stop stop-color="white"/>
<stop offset="1" stop-color="#12178E" stop-opacity="0.4"/>
</linearGradient>
<linearGradient id="paint7_linear_1_827" x1="121.778" y1="148.949" x2="101.092" y2="99.5963" gradientUnits="userSpaceOnUse">
<stop offset="0.0011346" stop-color="white"/>
<stop offset="1" stop-color="white" stop-opacity="0"/>
</linearGradient>
<radialGradient id="paint8_radial_1_827" cx="0" cy="0" r="1" gradientUnits="userSpaceOnUse" gradientTransform="translate(71.7449 106.741) rotate(-14.8494) scale(102.636)">
<stop offset="0.239373" stop-color="white"/>
<stop offset="0.410099" stop-color="#FFCEF1"/>
<stop offset="0.67492" stop-color="#B6B9FF"/>
<stop offset="0.861176" stop-color="#FFA8E7"/>
<stop offset="1" stop-color="white"/>
</radialGradient>
<radialGradient id="paint9_radial_1_827" cx="0" cy="0" r="1" gradientUnits="userSpaceOnUse" gradientTransform="translate(159.997 120.476) rotate(-121.724) scale(59.0164)">
<stop stop-color="#3F52FF"/>
<stop offset="1" stop-color="#3F52FF" stop-opacity="0"/>
</radialGradient>
<linearGradient id="paint10_linear_1_827" x1="44.7066" y1="64.4752" x2="178.597" y2="68.6349" gradientUnits="userSpaceOnUse">
<stop stop-color="white"/>
<stop offset="1" stop-color="#5653FF" stop-opacity="0.2"/>
</linearGradient>
<linearGradient id="paint11_linear_1_827" x1="102.011" y1="133.827" x2="97.8039" y2="70.0925" gradientUnits="userSpaceOnUse">
<stop stop-color="white"/>
<stop offset="1" stop-color="white" stop-opacity="0"/>
</linearGradient>
<linearGradient id="paint12_linear_1_827" x1="110.923" y1="13.049" x2="110.923" y2="80.9348" gradientUnits="userSpaceOnUse">
<stop stop-color="#13154D" stop-opacity="0.5"/>
<stop offset="1" stop-color="#8E92EE" stop-opacity="0"/>
</linearGradient>
<linearGradient id="paint13_linear_1_827" x1="120.101" y1="95.6731" x2="127.066" y2="20.6059" gradientUnits="userSpaceOnUse">
<stop stop-color="white"/>
<stop offset="1" stop-color="white" stop-opacity="0"/>
</linearGradient>
<linearGradient id="paint14_linear_1_827" x1="110.924" y1="13.049" x2="110.924" y2="57.356" gradientUnits="userSpaceOnUse">
<stop stop-color="#13154D"/>
<stop offset="1" stop-color="#8E92EE" stop-opacity="0"/>
</linearGradient>
<linearGradient id="paint15_linear_1_827" x1="124.001" y1="89.9535" x2="110.924" y2="13.049" gradientUnits="userSpaceOnUse">
<stop stop-color="white"/>
<stop offset="1" stop-color="white" stop-opacity="0"/>
</linearGradient>
<linearGradient id="paint16_linear_1_827" x1="110.923" y1="14.6195" x2="110.923" y2="40.6602" gradientUnits="userSpaceOnUse">
<stop stop-color="#13154D"/>
<stop offset="1" stop-color="#8E92EE" stop-opacity="0"/>
</linearGradient>
<linearGradient id="paint17_linear_1_827" x1="121.141" y1="68.1152" x2="110.923" y2="14.6195" gradientUnits="userSpaceOnUse">
<stop stop-color="white"/>
<stop offset="1" stop-color="white" stop-opacity="0"/>
</linearGradient>
<radialGradient id="paint18_radial_1_827" cx="0" cy="0" r="1" gradientUnits="userSpaceOnUse" gradientTransform="translate(40.9924 105.877) rotate(-19.6638) scale(148.523)">
<stop offset="0.249306" stop-color="white"/>
<stop offset="0.48315" stop-color="#FF8FED" stop-opacity="0.5"/>
<stop offset="0.627037" stop-color="#220C7A" stop-opacity="0"/>
</radialGradient>
</defs>
</svg>
