<svg width="210" height="420" viewBox="0 0 210 420" fill="none" xmlns="http://www.w3.org/2000/svg">
<path fill-rule="evenodd" clip-rule="evenodd" d="M91.7078 160.06C91.7078 160.06 85.0858 159.1 83.3358 166.1C76.9185 168.434 78.6691 175.434 78.6691 175.434C78.6691 175.434 75.4457 180.933 81.8482 183.75C82.3603 189.384 88.7629 188.359 88.7629 188.359C88.7629 188.359 90.2996 192.713 95.1655 190.92C100.416 195.004 110.31 194.184 113.823 189.192C120.789 194.392 132.91 188.045 131.389 183.298C139.524 182.805 143.469 174.177 138.702 166.847C142.364 161.049 138.189 157.628 138.189 157.628C138.189 157.628 139.342 144.31 130.123 142.518C125.385 135.347 115.141 141.109 115.141 141.109C115.141 141.109 108.354 139.701 105.921 145.591C98.3379 146.757 98.6938 150.926 98.1104 154.426C91.3237 154.81 91.7078 160.06 91.7078 160.06Z" fill="#253368"/>
<path fill-rule="evenodd" clip-rule="evenodd" d="M112.751 153.558C118.067 154.491 119.684 150.468 119.684 150.468C119.684 150.468 121.878 144.801 122.44 148.28C122.738 150.129 125.596 147.676 126.911 149.646C127.795 150.973 125.584 152.682 128.458 156.219C130.123 158.268 123.555 159.902 127.607 163.679C127.607 163.679 124.726 168.289 129.674 169.792L130.199 175.198C130.504 178.343 128.029 181.066 124.869 181.061C121.855 181.056 119.441 178.563 119.532 175.551L119.732 168.961C112.049 168.961 111.674 158.401 112.751 153.558Z" fill="#FFC999"/>
<path d="M122.07 159.179C122.203 159.046 122.419 159.046 122.553 159.179C122.686 159.312 122.686 159.528 122.553 159.661C122.38 159.834 122.067 160.082 121.626 160.327C120.758 160.81 119.762 161.061 118.665 160.955C118.478 160.937 118.34 160.77 118.359 160.582C118.377 160.395 118.544 160.257 118.731 160.276C119.679 160.368 120.54 160.15 121.294 159.731C121.517 159.607 121.713 159.474 121.879 159.343L121.966 159.273C122.016 159.23 122.051 159.198 122.07 159.179Z" fill="#F5222D"/>
<path d="M118.136 154.189L118.136 154.097C118.146 153.981 118.24 153.886 118.36 153.878C118.48 153.869 118.586 153.95 118.613 154.064L118.62 154.113L118.62 154.123C118.628 154.357 118.586 154.713 118.452 155.177C118.273 155.798 117.962 156.478 117.493 157.206L117.408 157.334L117.543 157.417L117.871 157.617C118.189 157.808 118.476 157.974 118.734 158.118L118.86 158.187C118.987 158.256 119.098 158.315 119.194 158.365L119.39 158.462C119.512 158.518 119.565 158.663 119.509 158.784C119.453 158.906 119.309 158.959 119.187 158.903L119.084 158.853L118.895 158.756C118.841 158.728 118.784 158.697 118.722 158.664L118.628 158.613C118.165 158.36 117.602 158.029 116.937 157.612C116.82 157.538 116.788 157.381 116.867 157.268C117.435 156.454 117.794 155.708 117.986 155.043C118.096 154.663 118.135 154.375 118.136 154.189Z" fill="#DD936F"/>
<path d="M125.542 153.813C125.723 153.813 125.87 153.96 125.87 154.141C125.87 155.402 124.92 156.435 123.735 156.435C122.55 156.435 121.601 155.402 121.601 154.141C121.601 153.96 121.747 153.813 121.928 153.813C122.11 153.813 122.256 153.96 122.256 154.141C122.256 155.052 122.925 155.779 123.735 155.779C124.545 155.779 125.214 155.052 125.214 154.141C125.214 153.96 125.361 153.813 125.542 153.813Z" fill="#253368"/>
<path d="M116.902 154.039C117.074 154.039 117.213 154.178 117.213 154.35C117.213 155.596 116.36 156.627 115.276 156.627C114.191 156.627 113.339 155.596 113.339 154.35C113.339 154.178 113.478 154.039 113.65 154.039C113.822 154.039 113.961 154.178 113.961 154.35C113.961 155.275 114.564 156.004 115.276 156.004C115.987 156.004 116.59 155.275 116.59 154.35C116.59 154.178 116.73 154.039 116.902 154.039Z" fill="#253368"/>
<path d="M121.804 150.206C123.057 149.803 124.383 149.75 125.635 150.278C125.866 150.375 126.09 150.492 126.308 150.628C126.462 150.724 126.509 150.926 126.413 151.08C126.317 151.233 126.114 151.28 125.961 151.184C125.773 151.067 125.579 150.966 125.38 150.883C124.294 150.424 123.121 150.471 122.004 150.83C121.863 150.876 121.732 150.923 121.613 150.971L121.499 151.02C121.412 151.057 121.353 151.086 121.326 151.1C121.166 151.185 120.967 151.123 120.883 150.963C120.798 150.803 120.859 150.605 121.02 150.52C121.174 150.439 121.443 150.322 121.804 150.206Z" fill="#253368"/>
<path d="M124.324 167.556C124.441 167.492 124.589 167.535 124.653 167.653C124.717 167.771 124.673 167.918 124.556 167.982C122.996 168.831 121.374 169.258 119.743 169.281C119.609 169.283 119.499 169.175 119.497 169.042C119.495 168.908 119.602 168.798 119.736 168.796C121.288 168.775 122.833 168.367 124.324 167.556Z" fill="#DD936F"/>
<path fill-rule="evenodd" clip-rule="evenodd" d="M105.886 227.702C102.338 227.177 99.8871 223.877 100.411 220.33L105.516 185.761C106.04 182.214 109.34 179.763 112.888 180.286C116.435 180.811 118.886 184.111 118.363 187.658L113.257 222.227C112.733 225.775 109.433 228.225 105.886 227.702Z" fill="#FFC999"/>
<path fill-rule="evenodd" clip-rule="evenodd" d="M116.198 202.312L118.362 187.658C118.884 184.126 116.421 180.808 112.888 180.286C109.355 179.765 106.039 182.229 105.517 185.761L103.373 200.276L116.198 202.312Z" fill="white"/>
<path d="M113.102 180.121C116.699 180.652 119.219 183.995 118.759 187.586L118.742 187.714L116.577 202.369C116.563 202.464 116.482 202.533 116.388 202.536L116.353 202.533L103.528 200.497C103.421 200.48 103.349 200.38 103.366 200.273C103.381 200.178 103.461 200.11 103.554 200.108L103.589 200.111L116.219 202.116L118.355 187.657C118.854 184.274 116.53 181.094 113.173 180.528L113.045 180.507C112.938 180.492 112.864 180.392 112.88 180.285C112.894 180.19 112.974 180.122 113.067 180.119L113.102 180.121Z" fill="#4E5C93"/>
<path fill-rule="evenodd" clip-rule="evenodd" d="M83.2498 216.312C83.1988 217.579 84.1534 218.662 85.4166 218.77L109.806 220.87C112.053 220.989 113.966 219.248 114.056 216.999C114.148 214.73 112.352 212.831 110.082 212.796L85.5002 214.038C84.2751 214.101 83.2996 215.086 83.2498 216.312Z" fill="#FFC999"/>
<path fill-rule="evenodd" clip-rule="evenodd" d="M80.8607 213.1C80.8607 213.1 85.2416 212.754 86.3628 215.089C87.3789 217.204 85.3916 218.472 85.3916 218.472C85.3916 218.472 83.6145 220.045 81.1207 220.904C79.4777 221.47 76.2432 222.229 75.8295 221.406C75.2898 220.333 79.0007 219.687 78.8624 218.824C78.721 217.939 77.944 218.015 76.1208 217.608C74.9818 217.354 73.7586 217.552 72.8335 217.152C71.0263 216.371 74.2467 213.073 80.8607 213.1Z" fill="#FFC999"/>
<path d="M73.0745 215.984C74.7112 215.584 76.1913 215.652 77.4465 216.008C77.6737 216.072 77.8743 216.141 78.0467 216.211L78.1582 216.258C78.2062 216.279 78.2427 216.296 78.2672 216.309C78.3864 216.37 78.4334 216.516 78.3723 216.635C78.3112 216.754 78.165 216.801 78.0459 216.74L77.9602 216.7C77.9335 216.689 77.9018 216.675 77.865 216.661C77.7085 216.597 77.5243 216.534 77.3142 216.474C76.1358 216.14 74.74 216.076 73.1897 216.455C73.0596 216.487 72.9283 216.407 72.8965 216.277C72.8647 216.147 72.9444 216.016 73.0745 215.984Z" fill="#DD936F"/>
<path d="M75.0031 214.637C76.2114 214.439 77.5239 214.447 78.7926 214.799C78.9216 214.835 78.9971 214.969 78.9613 215.098C78.9254 215.227 78.7917 215.302 78.6627 215.266C77.471 214.935 76.2261 214.928 75.0815 215.116C74.9611 215.135 74.8503 215.156 74.7499 215.177L74.6531 215.198C74.5797 215.215 74.5298 215.227 74.5055 215.234C74.3764 215.27 74.2428 215.194 74.2071 215.065C74.1714 214.936 74.247 214.802 74.3761 214.767L74.5007 214.736L74.5466 214.725C74.68 214.695 74.8329 214.665 75.0031 214.637Z" fill="#DD936F"/>
<path d="M76.2326 213.555C77.5462 213.407 78.6219 213.451 79.4609 213.615L79.6416 213.653C79.8363 213.697 79.9745 213.74 80.0565 213.772C80.181 213.821 80.2422 213.962 80.1931 214.087C80.144 214.211 80.0032 214.273 79.8786 214.223L79.8128 214.2C79.7202 214.17 79.5719 214.131 79.3677 214.091C78.5772 213.936 77.5513 213.894 76.2868 214.037C76.1538 214.052 76.0337 213.956 76.0188 213.823C76.0038 213.69 76.0995 213.57 76.2326 213.555Z" fill="#DD936F"/>
<path fill-rule="evenodd" clip-rule="evenodd" d="M70.5769 322.374L55.3044 263.635C54.2041 259.404 56.8442 255.107 61.1163 254.175C65.3877 253.244 69.5768 256.053 70.3372 260.358L80.0262 320.528C80.5192 323.322 79.5907 325.603 76.8179 326.207C74.0456 326.812 71.2912 325.12 70.5769 322.374Z" fill="#FFC999"/>
<path fill-rule="evenodd" clip-rule="evenodd" d="M120.961 233.238C118.715 228.602 113.092 226.726 108.511 229.083L59.2602 254.421C55.467 256.373 53.9241 260.995 55.7854 264.833C57.6461 268.672 62.2304 270.324 66.1122 268.555L116.512 245.587C121.199 243.451 123.209 237.874 120.961 233.238Z" fill="#FFC999"/>
<path fill-rule="evenodd" clip-rule="evenodd" d="M71.7605 326.967L81.2236 325.211L78.9794 310.144L68.1148 312.159L71.7605 326.967Z" fill="white"/>
<path d="M78.7577 312.953C78.9293 312.921 79.0942 313.034 79.126 313.206C79.1552 313.363 79.0624 313.515 78.9146 313.563L78.873 313.574L68.8431 315.435C68.6716 315.466 68.5067 315.353 68.4748 315.182C68.4457 315.024 68.5384 314.873 68.6862 314.824L68.7279 314.813L78.7577 312.953Z" fill="#E4EBF7"/>
<path fill-rule="evenodd" clip-rule="evenodd" d="M70.7076 326.552L81.1118 324.622L85.173 343.582L61.7307 347.931L61.1301 345.016C60.9131 343.943 61.4958 342.869 62.5132 342.467L68.3969 339.483L71.2565 337.07C72.1183 336.343 72.5104 335.205 72.2756 334.102C71.7704 331.732 70.9202 327.712 70.7076 326.552Z" fill="#4E5C93"/>
<path fill-rule="evenodd" clip-rule="evenodd" d="M85.0622 344.245L61.6905 348.581C61.4686 348.622 61.2559 348.476 61.2147 348.254L60.7285 345.633C60.6879 345.411 60.8336 345.199 61.0555 345.158L84.4272 340.822C84.6485 340.781 84.8618 340.927 84.9024 341.149L85.3886 343.77C85.4298 343.991 85.2835 344.204 85.0622 344.245Z" fill="#CCD7EE"/>
<path fill-rule="evenodd" clip-rule="evenodd" d="M61.0556 345.157C60.7489 343.505 61.6863 341.875 63.2685 341.309L68.395 339.474L69.5094 343.529L61.0556 345.157Z" fill="#CCD7EE"/>
<path d="M84.3973 340.663C84.4851 340.647 84.5694 340.705 84.5857 340.793C84.6 340.869 84.5574 340.944 84.4877 340.972L84.4562 340.981L61.0852 345.316C60.9974 345.333 60.913 345.275 60.8968 345.187C60.8825 345.11 60.9251 345.036 60.9948 345.008L61.0262 344.999L84.3973 340.663Z" fill="#A3B5D6"/>
<path d="M72.2585 333.114L72.3535 333.118C72.3808 333.12 72.4121 333.122 72.4471 333.125C72.5902 333.137 72.7491 333.156 72.9198 333.183C73.4083 333.261 73.8973 333.393 74.3569 333.591C74.7252 333.751 75.0594 333.947 75.3508 334.185C75.5592 334.355 75.4732 334.691 75.2087 334.74C74.951 334.788 74.5757 334.909 74.1173 335.088L73.9903 335.138C73.8589 335.19 73.7228 335.246 73.5829 335.306C73.375 335.394 73.165 335.486 72.958 335.58L72.8499 335.63L72.8774 335.644C73.2955 335.877 73.7142 336.164 74.1133 336.509L74.2831 336.66C74.4867 336.848 74.3681 337.188 74.092 337.208C73.775 337.231 73.4119 337.294 73.0123 337.393C72.6229 337.49 72.2087 337.618 71.7814 337.769C71.6921 337.801 71.6034 337.833 71.5156 337.865L71.2989 337.948L71.3645 337.972C71.5052 338.027 71.644 338.091 71.7799 338.168L71.9147 338.247C72.1269 338.38 72.3248 338.538 72.5051 338.724C72.6267 338.849 72.6239 339.049 72.4988 339.171C72.3736 339.292 72.1736 339.289 72.052 339.164C71.9077 339.016 71.7497 338.889 71.5798 338.783C71.1157 338.493 70.6423 338.385 70.2962 338.376L70.2241 338.376L70.1808 338.375C69.8721 338.346 69.7831 337.913 70.0807 337.774L70.197 337.721C70.289 337.68 70.394 337.634 70.5105 337.585C70.8427 337.445 71.2004 337.304 71.5705 337.173C72.0159 337.016 72.4493 336.882 72.8603 336.78C72.9837 336.75 73.1043 336.722 73.2219 336.698L73.3155 336.679L73.2225 336.61C73.0609 336.494 72.8975 336.388 72.7338 336.291L72.5701 336.197C72.456 336.133 72.3485 336.078 72.249 336.03L72.1522 335.985C72.079 335.952 72.0286 335.931 72.0047 335.923C71.7449 335.826 71.7269 335.465 71.9758 335.343L72.2777 335.198L72.3832 335.149C72.6938 335.004 73.0169 334.859 73.3363 334.724L73.619 334.606C73.6653 334.587 73.711 334.569 73.7563 334.551L74.0239 334.447C74.0671 334.43 74.1095 334.415 74.1513 334.399L74.3981 334.312L74.3699 334.296L74.2402 334.232L74.1063 334.172C73.6994 333.996 73.2599 333.878 72.8199 333.807C72.7042 333.789 72.5949 333.774 72.4937 333.764L72.2859 333.747C72.2676 333.746 72.2533 333.746 72.2432 333.745C72.0688 333.741 71.9308 333.596 71.935 333.422C71.9393 333.248 72.0841 333.11 72.2585 333.114Z" fill="#E4EBF7"/>
<path d="M72.8567 330.163C72.4175 330.202 72.0486 330.252 71.778 330.3L71.6717 330.32C71.6364 330.327 71.6024 330.34 71.5714 330.358C71.2031 330.575 71.026 330.859 71.0918 331.177C71.139 331.406 71.2961 331.586 71.5217 331.746C71.6591 331.843 71.7934 331.913 71.8895 331.955L71.926 331.978L72.259 332.164C72.3651 332.223 72.4783 332.285 72.598 332.349C73.1679 332.657 73.7679 332.965 74.3705 333.253C74.7658 333.441 75.1495 333.615 75.5176 333.77C76.7517 334.292 77.7422 334.587 78.4311 334.586C79.4197 334.586 79.825 333.949 79.429 332.859C78.8287 331.207 77.2775 330.377 75.142 330.164C74.3956 330.09 73.6214 330.097 72.8567 330.163ZM75.0795 330.793C76.9487 330.979 78.2644 331.662 78.7939 332.968L78.8351 333.075C79.0861 333.766 78.966 333.954 78.4309 333.955C77.8516 333.955 76.9238 333.679 75.7637 333.189C75.4049 333.037 75.0297 332.867 74.6426 332.682C74.0503 332.4 73.4595 332.097 72.8983 331.793L72.5647 331.611L72.172 331.391C72.0797 331.349 71.9818 331.298 71.8871 331.23C71.7802 331.155 71.7176 331.083 71.7106 331.049L71.7108 331.045C71.7137 331.032 71.7355 331.004 71.8122 330.952L71.8468 330.93L71.9783 330.907C72.2212 330.867 72.5391 330.825 72.9113 330.793C73.6397 330.73 74.3757 330.723 75.0795 330.793Z" fill="#E4EBF7"/>
<path fill-rule="evenodd" clip-rule="evenodd" d="M136.268 239.014C133.752 234.518 128.382 232.778 124.374 235.16L81.297 260.774C77.9795 262.746 76.9936 267.293 79.0768 271.016C81.1606 274.738 85.5507 276.277 88.9677 274.481L133.331 251.166C137.457 248.997 138.783 243.509 136.268 239.014Z" fill="#FFC999"/>
<path fill-rule="evenodd" clip-rule="evenodd" d="M63.2672 331.627C60.5791 330.719 59.0867 327.85 59.887 325.129L77.0042 266.901C78.2373 262.706 82.7116 260.379 86.8534 261.778C90.9957 263.177 93.1435 267.739 91.5815 271.823L69.8947 328.508C68.8811 331.158 65.9558 332.535 63.2672 331.627Z" fill="#FFC999"/>
<path fill-rule="evenodd" clip-rule="evenodd" d="M58.5393 329.351L68.2493 333.038L74.5212 317.602L63.3744 313.368L58.5393 329.351Z" fill="white"/>
<path d="M61.7837 317.88C61.8396 317.73 61.9972 317.648 62.149 317.682L62.1901 317.694L71.7492 321.258C71.9127 321.319 71.9958 321.501 71.9348 321.665C71.8789 321.814 71.7214 321.897 71.5696 321.863L71.5284 321.85L61.9694 318.286C61.8059 318.225 61.7228 318.043 61.7837 317.88Z" fill="#E4EBF7"/>
<path fill-rule="evenodd" clip-rule="evenodd" d="M59.2651 327.014L69.1801 330.711L62.9102 349.059L40.5694 340.73L41.5547 337.922C41.9199 336.89 42.9716 336.269 44.051 336.448L50.6318 336.915L54.3255 336.316C55.4381 336.135 56.3595 335.362 56.7259 334.295C57.512 332.004 58.8502 328.118 59.2651 327.014Z" fill="#4E5C93"/>
<path fill-rule="evenodd" clip-rule="evenodd" d="M40.0153 341.366C39.8044 341.288 39.6969 341.052 39.7756 340.842L40.7068 338.344C40.7855 338.133 41.0203 338.026 41.2311 338.104L63.5044 346.408C63.7152 346.487 63.8228 346.722 63.7441 346.932L62.8128 349.431C62.7342 349.642 62.4993 349.749 62.2879 349.67L40.0153 341.366Z" fill="#CCD7EE"/>
<path fill-rule="evenodd" clip-rule="evenodd" d="M40.8214 337.848C41.4084 336.274 43.6656 335.358 45.3136 335.686L50.0399 336.75L48.9089 340.8L40.8214 337.848Z" fill="#CCD7EE"/>
<path d="M40.8277 338.022C40.855 337.949 40.9297 337.907 41.004 337.919L41.0357 337.927L63.3077 346.231C63.3913 346.262 63.4338 346.355 63.4027 346.439C63.3754 346.512 63.3007 346.554 63.2264 346.542L63.1947 346.534L40.9227 338.23C40.839 338.199 40.7965 338.106 40.8277 338.022Z" fill="#A3B5D6"/>
<path d="M55.6758 334.903C55.8021 334.782 56.002 334.787 56.1225 334.913L56.1848 334.981C56.2441 335.048 56.3212 335.14 56.4103 335.255C56.6167 335.52 56.8151 335.817 56.9899 336.139C57.2944 336.699 57.4949 337.276 57.5539 337.856C57.5811 338.124 57.2827 338.301 57.0609 338.149C56.8084 337.976 56.3732 337.761 55.8126 337.524C55.5418 337.41 55.2543 337.296 54.9618 337.185L54.7635 337.111L54.7791 337.163C54.8133 337.284 54.8455 337.411 54.875 337.542L54.9172 337.743C54.9877 338.102 55.0336 338.473 55.0496 338.854C55.0612 339.13 54.7369 339.287 54.5275 339.106C54.2134 338.835 53.7969 338.558 53.3018 338.284C52.9845 338.107 52.6472 337.939 52.3013 337.779L52.0266 337.655L52.052 337.709C52.2184 338.082 52.3181 338.484 52.3318 338.913L52.3332 339.057C52.331 339.231 52.1877 339.371 52.0132 339.369C51.8387 339.367 51.6991 339.223 51.7013 339.049C51.7068 338.624 51.6066 338.228 51.4276 337.866C51.3337 337.676 51.2242 337.507 51.1094 337.363L51.0479 337.289C51.0108 337.246 50.982 337.216 50.9648 337.2C50.7145 336.965 50.9658 336.555 51.2886 336.672L51.4944 336.75L51.7481 336.851C51.8366 336.887 51.9289 336.925 52.0244 336.966C52.5707 337.198 53.111 337.455 53.6085 337.731C53.844 337.862 54.0639 337.994 54.2663 338.126L54.351 338.183L54.3332 338.063L54.2972 337.865C54.2361 337.553 54.1584 337.27 54.0729 337.02L54.014 336.856C53.9907 336.795 53.9718 336.75 53.9589 336.722C53.8435 336.469 54.0856 336.202 54.348 336.291L54.683 336.409C54.7479 336.432 54.8157 336.457 54.8859 336.483C55.2873 336.63 55.6869 336.786 56.0581 336.942C56.2879 337.039 56.4982 337.133 56.6869 337.223L56.7901 337.273L56.7616 337.182C56.6951 336.984 56.6113 336.785 56.512 336.588L56.4347 336.44C56.2774 336.151 56.0978 335.882 55.9113 335.642L55.8224 335.531C55.7538 335.447 55.6995 335.385 55.6654 335.349C55.5449 335.223 55.5496 335.023 55.6758 334.903Z" fill="#E4EBF7"/>
<path d="M57.1055 333.255C56.4424 333.249 56.1421 333.634 56.2605 334.156C56.2885 334.28 56.3375 334.404 56.4013 334.528C56.4586 334.64 56.5159 334.73 56.5573 334.787L56.6117 334.888L56.8217 335.252C56.8968 335.381 56.9771 335.517 57.0621 335.659C57.4671 336.334 57.8964 337.01 58.3316 337.642C58.6766 338.143 59.0115 338.595 59.332 338.988C60.0121 339.823 60.6029 340.364 61.1149 340.558C61.8389 340.833 62.3683 340.419 62.558 339.442C62.8955 337.703 61.9769 336.184 60.2315 334.899C59.6248 334.452 58.9541 334.062 58.2638 333.728C57.9165 333.56 57.6151 333.43 57.3823 333.339L57.2105 333.274C57.1768 333.262 57.1413 333.255 57.1055 333.255ZM56.9754 333.887L57.0455 333.886L57.2394 333.962C57.4441 334.045 57.6992 334.157 57.9888 334.297C58.6464 334.615 59.2844 334.986 59.8568 335.408C61.4268 336.564 62.2188 337.874 61.9377 339.322C61.8153 339.952 61.6465 340.084 61.3389 339.967C60.9621 339.824 60.4353 339.342 59.8217 338.589C59.513 338.21 59.1879 337.771 58.852 337.284C58.4251 336.664 58.0027 335.999 57.6041 335.334L57.3675 334.934L57.1036 334.474C57.0984 334.465 57.0937 334.456 57.0897 334.449C57.0454 334.384 57.0043 334.319 56.9634 334.24C56.9219 334.159 56.8915 334.082 56.8767 334.017L56.8667 333.968C56.8565 333.906 56.8728 333.89 56.9754 333.887Z" fill="#E4EBF7"/>
<path fill-rule="evenodd" clip-rule="evenodd" d="M108.731 188.329C107.617 191.224 105.53 196.218 105.434 199.437C105.279 204.655 108.9 208.302 108.9 208.302C108.9 208.302 108.838 206.774 110.013 220.194C125.656 221.933 135.338 218.425 135.338 218.425L134.812 214.881L136.793 206.301C136.793 206.301 138.122 203.068 140.817 195.873C142.692 190.872 142.16 184.851 141.661 181.645C141.448 180.272 140.412 179.171 139.053 178.88C134.304 177.862 132.536 177.932 132.536 177.932L131.901 174.882C131.794 174.36 131.317 173.997 130.785 174.03L119.412 174.748C118.923 174.778 118.518 175.136 118.426 175.617L117.798 178.92L110.846 180.744C109.755 181.03 108.979 181.996 108.935 183.123L108.731 188.329Z" fill="white"/>
<path d="M129.348 178.099C129.455 178.092 129.548 178.174 129.555 178.282C129.561 178.377 129.497 178.461 129.407 178.484L129.372 178.489L119.132 179.135C119.024 179.142 118.932 179.06 118.925 178.952C118.919 178.857 118.983 178.773 119.073 178.75L119.107 178.745L129.348 178.099Z" fill="#4E5C93"/>
<path d="M132.437 177.086C132.533 176.986 132.692 176.984 132.792 177.08C132.88 177.166 132.892 177.301 132.826 177.4L132.797 177.435L119.787 190.845C119.656 190.98 119.434 190.927 119.372 190.758L119.361 190.721L116.985 179.123C116.957 178.987 117.045 178.854 117.18 178.827C117.303 178.802 117.422 178.87 117.465 178.983L117.476 179.022L119.758 190.155L132.437 177.086Z" fill="#CCD7EE"/>
<path fill-rule="evenodd" clip-rule="evenodd" d="M115.215 192.861C114.201 194.848 114.864 197.218 116.696 198.154C118.529 199.091 120.837 198.239 121.853 196.252C122.868 194.265 122.205 191.896 120.372 190.959C118.539 190.023 116.23 190.875 115.215 192.861Z" fill="#CCD7EE"/>
<path fill-rule="evenodd" clip-rule="evenodd" d="M114.807 192.878C113.792 194.865 114.455 197.234 116.287 198.17C118.121 199.106 120.429 198.255 121.444 196.268C122.459 194.281 121.796 191.912 119.963 190.975C118.13 190.039 115.821 190.891 114.807 192.878Z" fill="#E4EBF7"/>
<path fill-rule="evenodd" clip-rule="evenodd" d="M115.549 193.166C114.761 194.709 115.276 196.549 116.699 197.276C118.122 198.002 119.915 197.341 120.702 195.799C121.49 194.256 120.975 192.416 119.553 191.689C118.129 190.962 116.337 191.624 115.549 193.166Z" fill="#8352FD"/>
<path d="M141.644 181.45C141.751 181.441 141.846 181.52 141.856 181.627L141.92 182.38L141.968 182.986C142 183.4 142.031 183.833 142.061 184.279C142.118 185.14 142.166 185.983 142.201 186.786L142.218 187.184C142.289 189.014 142.284 190.483 142.184 191.465C142.079 192.489 141.565 194.181 140.741 196.371L140.66 196.584C140.499 197.007 140.329 197.443 140.15 197.89C139.793 198.785 139.415 199.692 139.033 200.582L138.583 201.618L138.152 202.583L138.119 202.652L134.834 214.965L135.422 218.582C135.436 218.668 135.392 218.751 135.317 218.788L135.283 218.801L135.022 218.873L134.956 218.89C134.689 218.96 134.375 219.037 134.017 219.121C132.993 219.359 131.815 219.598 130.499 219.82C124.163 220.891 117.159 221.215 109.953 220.343C109.859 220.331 109.787 220.255 109.781 220.161L109.73 219.555C109.67 218.885 109.56 217.737 109.411 216.208L108.9 211.048L108.675 208.795L108.552 208.595L108.405 208.351C108.329 208.223 108.248 208.085 108.164 207.938C107.764 207.239 107.363 206.483 106.989 205.696C106.484 204.634 106.068 203.6 105.77 202.624C105.498 201.734 105.331 200.913 105.285 200.173C105.166 198.298 105.317 196.818 105.763 195.297C106 194.489 106.321 193.658 106.793 192.603L106.985 192.179C107.087 191.96 107.229 191.657 107.387 191.321L108.568 188.829L108.489 185.672C108.486 185.576 108.553 185.494 108.644 185.476L108.679 185.472C108.775 185.469 108.857 185.536 108.875 185.627L108.879 185.662L108.96 188.866L108.941 188.955L107.408 192.197C107.34 192.343 107.284 192.464 107.245 192.55C106.727 193.693 106.385 194.565 106.138 195.407C105.705 196.883 105.559 198.317 105.675 200.148C105.719 200.855 105.88 201.647 106.143 202.51C106.435 203.466 106.845 204.482 107.342 205.528C107.712 206.305 108.108 207.053 108.503 207.744L108.665 208.022C108.717 208.11 108.767 208.195 108.815 208.275L109.029 208.624L109.059 208.71L109.952 217.734C110.033 218.576 110.093 219.222 110.131 219.643L110.159 219.973L110.488 220.012C117.319 220.788 123.959 220.49 130.003 219.506L130.434 219.435C131.633 219.232 132.716 219.016 133.671 218.799L133.928 218.74C134.224 218.671 134.489 218.606 134.721 218.547L135.007 218.472L134.441 214.986L134.445 214.905L137.752 202.52L138.071 201.809C138.145 201.641 138.224 201.463 138.305 201.277L138.388 201.089C138.865 199.994 139.342 198.859 139.787 197.745C139.965 197.3 140.135 196.866 140.294 196.445L140.521 195.841C141.248 193.872 141.701 192.345 141.795 191.425L141.817 191.175C141.89 190.265 141.892 188.984 141.836 187.424L141.827 187.199C141.791 186.282 141.738 185.306 141.671 184.306L141.625 183.648C141.61 183.433 141.594 183.222 141.578 183.016L141.467 181.663C141.457 181.555 141.536 181.46 141.644 181.45Z" fill="#4E5C93"/>
<path fill-rule="evenodd" clip-rule="evenodd" d="M131.03 222.516C140.376 222.516 145.567 255.053 152.015 267.32C151.099 269.689 146.703 273.555 146.703 273.555C146.703 273.555 146.902 275.546 147.028 276.742C142.027 279.992 132.943 281.039 132.943 281.039L132.736 282.707C117.848 287.63 99.5972 279.248 99.5972 279.248C99.5972 279.248 99.2843 278.847 99.6857 277.566C93.2671 276.768 80.4251 267.064 80.4251 267.064L82.2083 263.788L68.3778 246.226C68.3778 246.226 95.2975 229.947 102.992 225.285C109.916 221.089 108.704 220.439 108.704 220.439C108.704 220.439 121.422 222.516 131.03 222.516Z" fill="#4E5C93"/>
<path d="M88.9479 254.226C89.022 254.117 89.1711 254.088 89.2807 254.162C89.3782 254.228 89.4118 254.353 89.3659 254.457L89.345 254.495L81.0056 266.821L81.094 266.904L81.37 267.154L81.4738 267.247C81.9831 267.697 82.5853 268.2 83.2773 268.742C85.2559 270.29 87.5555 271.84 90.1502 273.286C93.1155 274.938 96.2804 276.349 99.6263 277.442C99.7522 277.484 99.8208 277.619 99.7797 277.745C99.7386 277.871 99.6032 277.939 99.4774 277.898C96.101 276.795 92.9081 275.372 89.9168 273.705C87.2993 272.246 84.9793 270.683 82.9818 269.119C82.352 268.626 81.7953 268.165 81.3138 267.744L81.1561 267.606C81.0474 267.509 80.9476 267.42 80.8566 267.337L80.5712 267.071C80.5518 267.052 80.5365 267.038 80.5253 267.027C80.453 266.956 80.4341 266.848 80.474 266.758L80.4947 266.721L88.9479 254.226Z" fill="#253368"/>
<path d="M138.234 245.13C138.348 245.098 138.467 245.155 138.516 245.259L138.529 245.296L147.468 276.945C147.499 277.055 147.447 277.172 147.345 277.224L147.247 277.273C147.178 277.306 147.087 277.35 146.974 277.403L146.705 277.528C146.47 277.635 146.212 277.75 145.93 277.87C144.804 278.353 143.54 278.836 142.166 279.286C139.171 280.268 136.088 280.958 133.031 281.226C132.9 281.237 132.783 281.14 132.772 281.008C132.76 280.876 132.858 280.76 132.99 280.748C136.006 280.484 139.054 279.802 142.017 278.831C143.376 278.385 144.627 277.907 145.741 277.43L146.064 277.29C146.219 277.221 146.367 277.155 146.505 277.092L146.892 276.911L146.951 276.883L138.068 245.426C138.036 245.311 138.092 245.193 138.197 245.144L138.234 245.13Z" fill="#253368"/>
<path d="M128.121 218.518C128.24 218.508 128.346 218.587 128.374 218.698L128.382 218.753L128.891 224.859C128.973 225.858 129.058 226.901 129.146 227.984L129.41 231.268C129.807 236.22 130.201 241.279 130.579 246.319L130.829 249.674C131.014 252.179 131.191 254.633 131.36 257.027L131.613 260.667C132.208 269.327 132.662 276.853 132.946 282.934C132.951 283.051 132.872 283.155 132.758 283.18C124.091 285.077 114.942 284.292 106.169 281.83C104.306 281.308 102.613 280.748 101.121 280.188L100.741 280.043C100.434 279.925 100.152 279.813 99.8955 279.707L99.5511 279.564L99.2603 279.438C99.1618 279.393 99.1068 279.289 99.1218 279.185L99.1307 279.146L115.827 226.86C115.868 226.734 116.003 226.664 116.129 226.704C116.242 226.741 116.31 226.853 116.293 226.968L116.284 227.006L99.6532 279.086L99.9288 279.202L100.233 279.327C100.496 279.434 100.785 279.547 101.099 279.666L101.29 279.739C102.769 280.294 104.45 280.85 106.299 281.369C114.87 283.773 123.801 284.566 132.265 282.795L132.457 282.753L132.353 280.62C132.075 275.128 131.675 268.61 131.173 261.26L131.024 259.097L130.809 256.031C130.662 253.966 130.509 251.856 130.351 249.71L130.101 246.354C129.723 241.315 129.329 236.258 128.933 231.306L128.378 224.474L127.903 218.778C127.892 218.646 127.99 218.53 128.121 218.518Z" fill="#253368"/>
<path d="M122.31 218.789C122.429 218.796 122.523 218.889 122.535 219.003L122.536 219.042L120.07 263.055C120.062 263.187 119.949 263.288 119.817 263.281C119.698 263.274 119.604 263.182 119.592 263.067L119.591 263.028L122.057 219.016C122.064 218.883 122.178 218.782 122.31 218.789Z" fill="#253368"/>
<path d="M112.32 223.339C112.397 223.232 112.547 223.207 112.655 223.284C112.75 223.353 112.78 223.479 112.732 223.582L112.71 223.619L94.4958 248.999C94.4186 249.106 94.2688 249.131 94.1612 249.054C94.0656 248.985 94.0356 248.859 94.0843 248.756L94.1063 248.719L112.32 223.339Z" fill="#253368"/>
<path fill-rule="evenodd" clip-rule="evenodd" d="M88.7454 231.757L118.344 230.236L90.4217 218.446L65.7856 222.115L88.7454 231.757Z" fill="#253368"/>
<path fill-rule="evenodd" clip-rule="evenodd" d="M87.8637 229.612L109.361 228.507L89.5836 219.957L71.1884 222.609L87.8637 229.612Z" fill="#4E5C93"/>
<path fill-rule="evenodd" clip-rule="evenodd" d="M118.167 231.736L118.349 230.246L88.1666 231.561L88.5003 233.207L118.167 231.736Z" fill="white"/>
<path d="M85.4061 220.859C85.4323 220.806 85.4913 220.779 85.5467 220.792L85.574 220.802L101.566 228.665C101.628 228.696 101.653 228.771 101.623 228.833C101.597 228.887 101.538 228.913 101.482 228.9L101.455 228.89L85.4633 221.027C85.4012 220.996 85.3756 220.921 85.4061 220.859Z" fill="#CCD7EE"/>
<path d="M87.7072 220.209C87.7325 220.155 87.791 220.127 87.8467 220.139L87.8741 220.149L105.792 228.59C105.854 228.62 105.881 228.694 105.852 228.757C105.826 228.811 105.768 228.838 105.712 228.826L105.685 228.817L87.7672 220.375C87.7046 220.346 87.6777 220.271 87.7072 220.209Z" fill="#CCD7EE"/>
<path d="M84.9954 222.345C85.0223 222.292 85.0816 222.266 85.1369 222.28L85.164 222.29L98.5697 229.115C98.6315 229.146 98.656 229.222 98.6246 229.283C98.5977 229.336 98.5383 229.362 98.4831 229.348L98.456 229.338L85.0502 222.513C84.9885 222.482 84.9639 222.407 84.9954 222.345Z" fill="#CCD7EE"/>
<path d="M81.1263 222.321C81.1533 222.268 81.2126 222.242 81.2679 222.256L81.295 222.266L94.7007 229.091C94.7624 229.123 94.787 229.198 94.7556 229.26C94.7286 229.313 94.6693 229.338 94.6141 229.325L94.5869 229.315L81.1812 222.489C81.1195 222.458 81.0949 222.382 81.1263 222.321Z" fill="#CCD7EE"/>
<path d="M77.5271 222.548C77.554 222.495 77.6133 222.469 77.6686 222.483L77.6957 222.493L91.1014 229.318C91.1632 229.349 91.1877 229.425 91.1563 229.486C91.1294 229.539 91.0701 229.565 91.0148 229.551L90.9877 229.541L77.5819 222.716C77.5202 222.685 77.4957 222.609 77.5271 222.548Z" fill="#CCD7EE"/>
<path d="M106 227.224C106.069 227.223 106.126 227.278 106.127 227.347C106.128 227.407 106.088 227.457 106.033 227.471L106.004 227.475L87.6752 227.788C87.6059 227.79 87.5488 227.734 87.5476 227.665C87.5466 227.606 87.587 227.555 87.6422 227.541L87.6709 227.538L106 227.224Z" fill="#CCD7EE"/>
<path d="M102.136 225.383C102.205 225.382 102.262 225.437 102.264 225.507C102.265 225.566 102.224 225.616 102.169 225.63L102.14 225.634L83.8121 225.948C83.7429 225.949 83.6858 225.894 83.6846 225.825C83.6836 225.766 83.724 225.715 83.7791 225.701L83.8078 225.697L102.136 225.383Z" fill="#CCD7EE"/>
<path d="M97.2619 223.912C97.3312 223.911 97.3883 223.966 97.3895 224.035C97.3905 224.095 97.3501 224.145 97.2949 224.159L97.2662 224.163L78.9375 224.476C78.8682 224.478 78.8111 224.422 78.8099 224.353C78.8089 224.294 78.8493 224.243 78.9045 224.23L78.9332 224.226L97.2619 223.912Z" fill="#CCD7EE"/>
<path d="M94.1627 221.052C94.2319 221.05 94.289 221.106 94.2902 221.175C94.2912 221.234 94.2508 221.285 94.1957 221.299L94.167 221.302L75.8382 221.616C75.769 221.618 75.7119 221.562 75.7107 221.493C75.7097 221.434 75.7501 221.383 75.8052 221.369L75.8339 221.366L94.1627 221.052Z" fill="#CCD7EE"/>
<path fill-rule="evenodd" clip-rule="evenodd" d="M88.4772 233.206L87.1574 233.18L65.4608 223.75L60.4124 184.846L84.0754 192.235L88.4772 233.206Z" fill="white"/>
<path fill-rule="evenodd" clip-rule="evenodd" d="M87.1103 233.178L64.2285 223.243C64.0201 223.153 63.8732 222.959 63.8437 222.732L58.9514 185.341C58.8899 184.871 59.3368 184.496 59.7892 184.638L82.2315 191.679C82.4774 191.756 82.6544 191.971 82.6821 192.228L87.1103 233.178Z" fill="#253368"/>
<path fill-rule="evenodd" clip-rule="evenodd" d="M146.215 223.863L145.72 223.952C142.326 224.555 139.085 222.293 138.482 218.9L132.913 187.592C132.31 184.199 134.572 180.959 137.965 180.354L138.46 180.266C141.853 179.663 145.095 181.925 145.698 185.319L151.267 216.625C151.87 220.019 149.608 223.26 146.215 223.863Z" fill="#FFC999"/>
<path fill-rule="evenodd" clip-rule="evenodd" d="M148.096 198.798L145.501 184.214C144.876 180.698 141.488 178.333 137.972 178.958C134.457 179.584 132.091 182.972 132.716 186.487L135.286 200.934L148.096 198.798Z" fill="white"/>
<path d="M145.652 183.988C145.747 183.971 145.837 184.025 145.87 184.112L145.879 184.146L148.473 198.731C148.49 198.826 148.435 198.917 148.348 198.949L148.314 198.958L135.044 201.248C134.95 201.264 134.861 201.211 134.828 201.125L134.818 201.092L132.569 189.323C132.548 189.217 132.618 189.115 132.724 189.094C132.818 189.076 132.91 189.129 132.943 189.216L132.953 189.25L135.166 200.829L148.053 198.606L145.494 184.215C145.477 184.12 145.531 184.03 145.618 183.997L145.652 183.988Z" fill="#4E5C93"/>
<path fill-rule="evenodd" clip-rule="evenodd" d="M107.725 222.805C107.868 224.614 109.409 225.99 111.223 225.929L146.232 224.752C149.445 224.537 151.864 221.737 151.61 218.527C151.353 215.288 148.478 212.897 145.246 213.234L110.534 219.192C108.805 219.488 107.586 221.055 107.725 222.805Z" fill="#FFC999"/>
<path fill-rule="evenodd" clip-rule="evenodd" d="M114.402 225.718C111.952 227.636 104.017 226.874 104.017 226.874L98.9027 229.744C98.1073 230.111 97.886 229.58 97.4846 229.6C96.4022 229.657 96.3432 228.52 96.3432 228.52C95.9608 228.362 95.3744 228.679 95.1586 227.659C95.1586 227.659 94.3983 227.644 94.2962 226.727C94.2428 226.243 98.8117 218.97 98.8117 218.97L106.183 218.789C106.183 218.789 116.946 218.432 118.278 220.781C119.608 223.13 114.402 225.718 114.402 225.718Z" fill="#FFC999"/>
<path d="M98.6627 218.459L111.998 218.812C112.132 218.815 112.238 218.927 112.234 219.061C112.231 219.181 112.141 219.279 112.025 219.294L111.986 219.297L98.7881 218.947L98.1568 219.961L97.5246 220.985C97.42 221.155 97.316 221.324 97.2128 221.493L96.3168 222.971C95.1918 224.846 94.4048 226.258 94.3827 226.423L94.3824 226.432C94.3972 226.565 94.3014 226.685 94.1683 226.7C94.0352 226.715 93.9152 226.619 93.9004 226.486C93.8715 226.227 94.4171 225.21 95.5379 223.328L96.1911 222.24C96.5866 221.585 97.0046 220.903 97.4272 220.218L98.4509 218.572C98.49 218.51 98.5547 218.47 98.6264 218.461L98.6627 218.459Z" fill="#DD936F"/>
<path d="M101.507 220.68C101.628 220.624 101.772 220.677 101.828 220.799C101.878 220.909 101.84 221.036 101.743 221.101L101.709 221.121L99.0016 222.361L95.3603 227.794C95.2932 227.894 95.1645 227.929 95.0583 227.88L95.0239 227.861C94.9238 227.794 94.8897 227.665 94.9382 227.559L94.9575 227.524L98.637 222.035C98.6557 222.007 98.6799 221.983 98.708 221.965L98.7374 221.949L101.507 220.68Z" fill="#DD936F"/>
<path d="M102.081 222.643C102.202 222.585 102.346 222.637 102.404 222.758C102.455 222.867 102.419 222.995 102.323 223.061L102.288 223.081L100.147 224.095L96.5335 228.67C96.4597 228.764 96.331 228.788 96.2295 228.734L96.1929 228.71C96.0995 228.637 96.075 228.508 96.129 228.406L96.1529 228.37L99.8023 223.75C99.8178 223.73 99.8361 223.713 99.8565 223.699L99.8888 223.681L102.081 222.643Z" fill="#DD936F"/>
<path d="M104.262 223.687C104.38 223.623 104.527 223.667 104.59 223.785C104.647 223.891 104.617 224.021 104.525 224.092L104.492 224.114L101.526 225.71L97.7872 229.611C97.7049 229.697 97.5744 229.709 97.4786 229.646L97.4444 229.618C97.3584 229.536 97.3463 229.406 97.4098 229.31L97.4371 229.276L101.202 225.348L101.262 225.302L104.262 223.687Z" fill="#DD936F"/>
<path d="M68.2296 246.038C68.3221 245.965 68.4514 245.971 68.5366 246.047L68.5663 246.078L82.3967 263.64C82.4787 263.744 82.4607 263.894 82.3567 263.976C82.2643 264.049 82.1349 264.043 82.0498 263.968L82.0201 263.936L68.1896 246.375C68.1077 246.271 68.1256 246.12 68.2296 246.038Z" fill="#253368"/>
</svg>
