<svg width="19" height="19" viewBox="0 0 19 19" fill="none" xmlns="http://www.w3.org/2000/svg">
<path d="M9.12853 7.00074C9.59733 7.00074 9.97721 7.38062 9.97721 7.84942C9.97721 8.31822 9.59733 8.6981 9.12853 8.6981C8.65973 8.6981 8.27984 8.31822 8.27984 7.84942C8.27984 7.38062 8.65973 7.00074 9.12853 7.00074ZM9.12853 10.638C10.3288 10.638 11.5938 11.228 11.5938 11.4866V11.9312H6.6633V11.4866C6.6633 11.228 7.92825 10.638 9.12853 10.638ZM9.12853 6.23288C8.23539 6.23288 7.51199 6.95628 7.51199 7.84942C7.51199 8.74256 8.23539 9.46596 9.12853 9.46596C10.0217 9.46596 10.7451 8.74256 10.7451 7.84942C10.7451 6.95628 10.0217 6.23288 9.12853 6.23288ZM9.12853 9.8701C8.04949 9.8701 5.89545 10.4116 5.89545 11.4866V12.699H12.3616V11.4866C12.3616 10.4116 10.2076 9.8701 9.12853 9.8701Z" fill="white"/>
</svg>
