<svg width="9" height="7" viewBox="0 0 9 7" fill="none" xmlns="http://www.w3.org/2000/svg">
<path fill-rule="evenodd" clip-rule="evenodd" d="M1.81602 0.0257876H6.69149C6.86877 0.0257826 7.02173 0.0257782 7.14833 0.034416C7.28162 0.0435107 7.41495 0.0635169 7.54667 0.118077C7.84374 0.241129 8.07977 0.477153 8.20282 0.774226C8.25738 0.905945 8.27738 1.03927 8.28648 1.17257C8.29512 1.29917 8.29511 1.45213 8.29511 1.6294V4.88834C8.29511 5.06561 8.29512 5.21857 8.28648 5.34517C8.27738 5.47847 8.25738 5.61179 8.20282 5.74351C8.07977 6.04059 7.84374 6.27661 7.54667 6.39966C7.41495 6.45422 7.28162 6.47423 7.14833 6.48332C7.02173 6.49196 6.86877 6.49196 6.69149 6.49195H1.81602C1.63874 6.49196 1.48578 6.49196 1.35918 6.48332C1.22589 6.47423 1.09256 6.45422 0.960841 6.39966C0.663768 6.27661 0.427744 6.04059 0.304692 5.74351C0.250132 5.61179 0.230126 5.47847 0.221031 5.34517C0.212393 5.21857 0.212398 5.06561 0.212403 4.88834V1.6294C0.212398 1.45213 0.212393 1.29917 0.221031 1.17257C0.230126 1.03927 0.250132 0.905945 0.304692 0.774226C0.427744 0.477153 0.663768 0.241129 0.960841 0.118077C1.09256 0.0635169 1.22589 0.0435107 1.35918 0.034416C1.48578 0.0257782 1.63874 0.0257826 1.81602 0.0257876ZM1.14897 0.946103C1.29595 0.778129 1.55127 0.761108 1.71924 0.908085L3.98763 2.89293C4.14 3.02625 4.36751 3.02625 4.51988 2.89293L6.78828 0.908085C6.95625 0.761108 7.21157 0.778129 7.35855 0.946103C7.50552 1.11408 7.4885 1.36939 7.32053 1.51637L5.05213 3.50122C4.59502 3.90119 3.91249 3.90119 3.45538 3.50122L1.18699 1.51637C1.01902 1.36939 1.00199 1.11408 1.14897 0.946103Z" fill="white"/>
</svg>
