<svg width="21" height="20" viewBox="0 0 21 20" fill="none" xmlns="http://www.w3.org/2000/svg">
<circle cx="10.4379" cy="10.1743" r="8.0827" fill="#C13584"/>
<path d="M10.4385 6.19857C11.7334 6.19857 11.8868 6.20352 12.3982 6.22685C12.871 6.24841 13.1278 6.32741 13.2987 6.39383C13.525 6.4818 13.6866 6.58689 13.8563 6.75658C14.026 6.9263 14.1311 7.08785 14.219 7.31422C14.2855 7.4851 14.3645 7.74189 14.386 8.21472C14.4094 8.72609 14.4143 8.87948 14.4143 10.1744C14.4143 11.4693 14.4094 11.6227 14.386 12.134C14.3645 12.6069 14.2855 12.8636 14.219 13.0345C14.1311 13.2609 14.026 13.4225 13.8563 13.5921C13.6866 13.7619 13.525 13.8669 13.2987 13.9549C13.1278 14.0213 12.871 14.1003 12.3982 14.1219C11.8869 14.1452 11.7335 14.1502 10.4385 14.1502C9.14349 14.1502 8.99014 14.1452 8.47883 14.1219C8.00599 14.1003 7.74921 14.0213 7.57832 13.9549C7.35195 13.8669 7.1904 13.7619 7.02071 13.5921C6.85101 13.4225 6.74591 13.2609 6.65793 13.0345C6.59152 12.8636 6.51251 12.6069 6.49095 12.134C6.46762 11.6227 6.46267 11.4693 6.46267 10.1744C6.46267 8.87948 6.46762 8.72609 6.49095 8.21472C6.51251 7.74189 6.59152 7.4851 6.65793 7.31422C6.74591 7.08785 6.85099 6.9263 7.02071 6.7566C7.1904 6.58689 7.35195 6.4818 7.57832 6.39383C7.74921 6.32741 8.00599 6.24841 8.47883 6.22685C8.9902 6.20352 9.14359 6.19857 10.4385 6.19857ZM10.4385 5.32477C9.12141 5.32477 8.95626 5.33035 8.439 5.35395C7.92281 5.3775 7.57027 5.45948 7.2618 5.57936C6.9429 5.70329 6.67245 5.86912 6.40282 6.13872C6.13322 6.40834 5.96739 6.67879 5.84348 6.9977C5.72358 7.30617 5.64159 7.6587 5.61805 8.17489C5.59445 8.69215 5.58887 8.8573 5.58887 10.1744C5.58887 11.4914 5.59445 11.6566 5.61805 12.1739C5.64159 12.69 5.72358 13.0426 5.84348 13.3511C5.96739 13.67 6.13322 13.9404 6.40282 14.21C6.67245 14.4796 6.9429 14.6455 7.2618 14.7694C7.57027 14.8893 7.92281 14.9713 8.439 14.9948C8.95626 15.0184 9.12141 15.024 10.4385 15.024C11.7556 15.024 11.9207 15.0184 12.438 14.9948C12.9542 14.9713 13.3067 14.8893 13.6152 14.7694C13.9341 14.6455 14.2045 14.4796 14.4742 14.21C14.7438 13.9404 14.9096 13.67 15.0335 13.3511C15.1534 13.0426 15.2354 12.69 15.2589 12.1739C15.2825 11.6566 15.2881 11.4914 15.2881 10.1744C15.2881 8.8573 15.2825 8.69215 15.2589 8.17489C15.2354 7.6587 15.1534 7.30617 15.0335 6.9977C14.9096 6.67879 14.7438 6.40834 14.4742 6.13872C14.2045 5.86912 13.9341 5.70329 13.6152 5.57936C13.3067 5.45948 12.9542 5.3775 12.438 5.35395C11.9207 5.33035 11.7556 5.32477 10.4385 5.32477Z" fill="white"/>
<path d="M10.4409 7.68619C9.06552 7.68619 7.95056 8.80114 7.95056 10.1765C7.95056 11.5519 9.06552 12.6669 10.4409 12.6669C11.8163 12.6669 12.9313 11.5519 12.9313 10.1765C12.9313 8.80114 11.8163 7.68619 10.4409 7.68619ZM10.4409 11.7931C9.54811 11.7931 8.82437 11.0693 8.82437 10.1765C8.82437 9.28373 9.54811 8.55999 10.4409 8.55999C11.3337 8.55999 12.0574 9.28373 12.0574 10.1765C12.0574 11.0693 11.3337 11.7931 10.4409 11.7931Z" fill="white"/>
<path d="M13.6102 7.58651C13.6102 7.9079 13.3496 8.16846 13.0282 8.16846C12.7068 8.16846 12.4463 7.9079 12.4463 7.58651C12.4463 7.2651 12.7068 7.00455 13.0282 7.00455C13.3496 7.00455 13.6102 7.2651 13.6102 7.58651Z" fill="white"/>
</svg>
