<svg width="21" height="20" viewBox="0 0 21 20" fill="none" xmlns="http://www.w3.org/2000/svg">
<circle cx="10.3176" cy="10.1743" r="8.0827" fill="#0077B5"/>
<path fill-rule="evenodd" clip-rule="evenodd" d="M8.20534 6.24749C8.20534 6.75068 7.82221 7.15789 7.22305 7.15789C6.64724 7.15789 6.26411 6.75068 6.27596 6.24749C6.26411 5.71985 6.64723 5.32449 7.23453 5.32449C7.8222 5.32449 8.19385 5.71985 8.20534 6.24749ZM6.32413 13.7382V7.8771H8.14568V13.7378H6.32413V13.7382Z" fill="white"/>
<path fill-rule="evenodd" clip-rule="evenodd" d="M9.60615 9.74777C9.60615 9.01671 9.58207 8.39347 9.55798 7.87806H11.1402L11.2243 8.68101H11.2602C11.5 8.30936 12.0991 7.74652 13.0699 7.74652C14.2682 7.74652 15.1671 8.53761 15.1671 10.2628V13.7392H13.3456V10.4911C13.3456 9.73555 13.0821 9.2205 12.423 9.2205C11.9194 9.2205 11.62 9.56807 11.5003 9.9034C11.4522 10.0235 11.4284 10.1909 11.4284 10.3592V13.7392H9.60689V9.74777H9.60615Z" fill="white"/>
</svg>
