<svg width="20" height="20" viewBox="0 0 20 20" fill="none" xmlns="http://www.w3.org/2000/svg">
<circle cx="9.87744" cy="10.1743" r="8.0827" fill="#1DA1F2"/>
<path fill-rule="evenodd" clip-rule="evenodd" d="M14.7268 7.06594C14.3702 7.22435 13.9864 7.33103 13.584 7.3792C13.9948 7.13286 14.3104 6.74298 14.4588 6.27841C14.0747 6.50665 13.6483 6.67185 13.1954 6.7614C12.8323 6.37475 12.3147 6.13293 11.7428 6.13293C10.644 6.13293 9.75301 7.02391 9.75301 8.12276C9.75301 8.27859 9.77079 8.43053 9.80473 8.57633C8.1508 8.49357 6.68469 7.7012 5.7032 6.49728C5.53185 6.79115 5.4339 7.13286 5.4339 7.49753C5.4339 8.18775 5.78466 8.79682 6.31906 9.15373C5.99254 9.14338 5.68606 9.05383 5.41741 8.9048V8.92969C5.41741 9.89405 6.10375 10.6981 7.01348 10.8814C6.84666 10.9266 6.67079 10.9512 6.48943 10.9512C6.36108 10.9512 6.23629 10.9386 6.11474 10.9153C6.36787 11.7057 7.10303 12.2812 7.97364 12.2974C7.2928 12.8308 6.43479 13.1492 5.50243 13.1492C5.34144 13.1492 5.18303 13.1398 5.02753 13.1211C5.90816 13.6856 6.95399 14.0153 8.07773 14.0153C11.7377 14.0153 13.7391 10.9832 13.7391 8.35391C13.7391 8.26759 13.7375 8.1816 13.7333 8.09658C14.1225 7.81532 14.4601 7.46488 14.7268 7.06594Z" fill="white"/>
</svg>
