<svg width="20" height="20" viewBox="0 0 20 20" fill="none" xmlns="http://www.w3.org/2000/svg">
<circle cx="10.198" cy="10.1743" r="8.0827" fill="#FF0000"/>
<path fill-rule="evenodd" clip-rule="evenodd" d="M14.7645 7.09413C14.9258 7.25542 15.042 7.45615 15.1016 7.67633C15.4447 9.05727 15.3654 11.2383 15.1083 12.6725C15.0487 12.8927 14.9325 13.0934 14.7712 13.2547C14.6099 13.416 14.4092 13.5322 14.189 13.5918C13.3829 13.8116 10.1388 13.8116 10.1388 13.8116C10.1388 13.8116 6.89457 13.8116 6.08852 13.5918C5.86834 13.5322 5.66761 13.416 5.50632 13.2547C5.34503 13.0934 5.22881 12.8927 5.16923 12.6725C4.82416 11.2976 4.91875 9.11523 5.16256 7.68299C5.22214 7.46281 5.33837 7.26208 5.49966 7.10079C5.66095 6.9395 5.86168 6.82327 6.08186 6.7637C6.88791 6.54386 10.1321 6.5372 10.1321 6.5372C10.1321 6.5372 13.3763 6.5372 14.1823 6.75703C14.4025 6.81661 14.6032 6.93284 14.7645 7.09413ZM11.7908 10.1744L9.09955 11.7332V8.61561L11.7908 10.1744Z" fill="white"/>
</svg>
