<svg width="585" height="539" viewBox="0 0 585 539" fill="none" xmlns="http://www.w3.org/2000/svg">
<path d="M538.976 456.036C535.29 502.907 494.305 537.915 447.434 534.229C400.564 530.542 365.556 489.558 369.242 442.687C372.928 395.816 413.913 360.808 460.784 364.495C507.654 368.181 542.662 409.166 538.976 456.036Z" fill="url(#paint0_linear_103_153)"/>
<path d="M520.662 453.507C521.036 486.874 494.669 509.395 461.771 503.81C428.873 498.224 401.901 466.647 401.527 433.28C401.153 399.913 427.519 377.392 460.417 382.978C493.315 388.563 520.288 420.14 520.662 453.507Z" fill="url(#paint1_radial_103_153)"/>
<path d="M515.876 475.767C522.735 513.63 498.848 534.034 462.522 521.34C426.197 508.646 391.189 467.662 384.33 429.799C377.471 391.936 401.358 371.532 437.684 384.226C474.009 396.919 509.017 437.904 515.876 475.767Z" fill="url(#paint2_radial_103_153)"/>
<path d="M515.704 475.798C519.127 494.693 514.872 509.187 505.28 517.38C495.688 525.573 480.708 527.51 462.58 521.176C444.453 514.841 426.644 501.443 412.509 484.895C398.374 468.346 387.925 448.662 384.502 429.768C381.079 410.873 385.334 396.379 394.926 388.186C404.518 379.993 419.498 378.056 437.626 384.39C455.753 390.725 473.562 404.123 487.697 420.671C501.832 437.22 512.281 456.904 515.704 475.798Z" stroke="url(#paint3_linear_103_153)" stroke-opacity="0.2" stroke-width="0.348891"/>
<mask id="path-5-inside-1_103_153" fill="white">
<path fill-rule="evenodd" clip-rule="evenodd" d="M500.534 485.12C500.805 481.084 500.454 476.578 499.412 471.66C493.372 443.133 466.4 411.556 439.168 401.131C434.474 399.334 430.079 398.282 426.049 397.919C423.973 370.843 442.86 357.41 470.937 367.674C501.416 378.817 531.184 413.666 537.424 445.512C543.173 474.849 526.952 491.404 500.534 485.12Z"/>
</mask>
<path fill-rule="evenodd" clip-rule="evenodd" d="M500.534 485.12C500.805 481.084 500.454 476.578 499.412 471.66C493.372 443.133 466.4 411.556 439.168 401.131C434.474 399.334 430.079 398.282 426.049 397.919C423.973 370.843 442.86 357.41 470.937 367.674C501.416 378.817 531.184 413.666 537.424 445.512C543.173 474.849 526.952 491.404 500.534 485.12Z" fill="url(#paint4_linear_103_153)"/>
<path d="M499.412 471.66L499.071 471.732L499.412 471.66ZM500.534 485.12L500.185 485.097L500.166 485.391L500.453 485.46L500.534 485.12ZM439.168 401.131L439.293 400.805L439.168 401.131ZM426.049 397.919L425.701 397.946L425.724 398.24L426.018 398.267L426.049 397.919ZM470.937 367.674L471.057 367.346L470.937 367.674ZM537.424 445.512L537.767 445.445L537.424 445.512ZM499.071 471.732C500.107 476.624 500.454 481.097 500.185 485.097L500.882 485.144C501.155 481.07 500.8 476.532 499.754 471.588L499.071 471.732ZM439.043 401.457C452.591 406.644 466.097 417.103 476.972 429.834C487.847 442.566 496.066 457.54 499.071 471.732L499.754 471.588C496.719 457.253 488.432 442.176 477.502 429.381C466.573 416.586 452.977 406.044 439.293 400.805L439.043 401.457ZM426.018 398.267C430.01 398.627 434.374 399.669 439.043 401.457L439.293 400.805C434.574 398.998 430.147 397.938 426.081 397.572L426.018 398.267ZM426.397 397.893C425.365 384.437 429.545 374.45 437.383 369.082C445.229 363.708 456.841 362.892 470.818 368.002L471.057 367.346C456.957 362.192 445.086 362.96 436.989 368.506C428.883 374.058 424.657 384.326 425.701 397.946L426.397 397.893ZM470.818 368.002C485.987 373.547 501.002 385.003 513.005 399.056C525.008 413.108 533.976 429.729 537.082 445.579L537.767 445.445C534.632 429.449 525.596 412.722 513.536 398.603C501.475 384.483 486.367 372.943 471.057 367.346L470.818 368.002ZM537.082 445.579C539.944 460.183 537.323 471.525 530.788 478.434C524.261 485.337 513.744 487.903 500.614 484.781L500.453 485.46C513.742 488.62 524.545 486.051 531.295 478.913C538.039 471.782 540.654 460.178 537.767 445.445L537.082 445.579Z" fill="url(#paint5_linear_103_153)" fill-opacity="0.3" mask="url(#path-5-inside-1_103_153)"/>
<g style="mix-blend-mode:lighten">
<ellipse cx="453.073" cy="405.026" rx="103.971" ry="101.27" transform="rotate(-130.503 453.073 405.026)" fill="url(#paint6_radial_103_153)" fill-opacity="0.6"/>
</g>
<path d="M499.411 471.66C505.451 500.186 488.272 514.86 461.041 504.435C433.809 494.009 406.837 462.432 400.796 433.906C394.756 405.379 411.935 390.705 439.167 401.131C466.399 411.556 493.371 443.133 499.411 471.66Z" fill="url(#paint7_radial_103_153)"/>
<path d="M399.609 616.067C352.885 622.757 316.282 610.526 294.831 585.412C273.379 560.299 267.021 522.234 280.933 477.13C294.846 432.025 326.388 388.461 366.15 354.497C405.913 320.533 453.873 296.189 500.598 289.499C547.322 282.808 583.925 295.039 605.376 320.153C626.827 345.266 633.186 383.331 619.274 428.435C605.361 473.54 573.819 517.104 534.056 551.068C494.294 585.032 446.334 609.376 399.609 616.067Z" stroke="url(#paint8_linear_103_153)" stroke-width="0.581485"/>
<path d="M394.303 610.048C347.525 616.746 310.832 604.506 289.315 579.315C267.798 554.124 261.444 515.97 275.372 470.814C289.301 425.657 320.873 382.057 360.661 348.072C400.449 314.086 448.448 289.718 495.227 283.02C542.005 276.322 578.697 288.563 600.215 313.753C621.732 338.944 628.086 377.099 614.157 422.255C600.229 467.411 568.657 511.011 528.869 544.997C489.081 578.983 441.082 603.351 394.303 610.048Z" stroke="url(#paint9_linear_103_153)" stroke-width="0.116297"/>
<path d="M389.486 638.353C334.775 645.118 291.47 629.765 265.645 599.532C239.821 569.298 231.426 524.126 246.661 471.145C261.897 418.161 297.875 367.435 343.738 328.259C389.602 289.084 445.329 261.479 500.043 254.713C554.754 247.948 598.059 263.301 623.883 293.534C649.708 323.767 658.103 368.94 642.867 421.921C627.631 474.904 591.654 525.631 545.79 564.807C499.927 603.982 444.2 631.587 389.486 638.353Z" stroke="url(#paint10_linear_103_153)" stroke-width="0.581485"/>
<path d="M389.486 638.353C334.775 645.118 291.47 629.765 265.645 599.532C239.821 569.298 231.426 524.126 246.661 471.145C261.897 418.161 297.875 367.435 343.738 328.259C389.602 289.084 445.329 261.479 500.043 254.713C554.754 247.948 598.059 263.301 623.883 293.534C649.708 323.767 658.103 368.94 642.867 421.921C627.631 474.904 591.654 525.631 545.79 564.807C499.927 603.982 444.2 631.587 389.486 638.353Z" stroke="url(#paint11_linear_103_153)" stroke-opacity="0.2" stroke-width="0.581485"/>
<path d="M384.639 632.662C327.796 636.928 281.68 618.304 253.046 584.782C224.412 551.26 213.226 502.799 226.327 447.322C239.428 391.841 274.336 339.869 320.195 300.697C366.054 261.526 422.844 235.172 479.691 230.905C536.533 226.639 582.65 245.263 611.284 278.785C639.918 312.307 651.103 360.768 638.003 416.245C624.902 471.726 589.994 523.698 544.135 562.87C498.276 602.041 441.486 628.395 384.639 632.662Z" stroke="url(#paint12_linear_103_153)" stroke-width="0.581485"/>
<path d="M495.423 512.562L492.818 499.007L505.799 503.699L508.403 517.253L495.423 512.562Z" fill="url(#paint13_linear_103_153)"/>
<path d="M505.798 503.7L492.817 499.008L482.322 523.75L505.798 503.7Z" fill="url(#paint14_linear_103_153)"/>
<path d="M505.798 503.703L508.418 517.253L482.323 523.752L505.798 503.703Z" fill="url(#paint15_linear_103_153)"/>
<path d="M399.651 396.744L398.008 388.191L406.198 391.152L407.842 399.704L399.651 396.744Z" fill="url(#paint16_linear_103_153)"/>
<path d="M406.201 391.151L398.008 388.19L391.385 403.804L406.201 391.151Z" fill="url(#paint17_linear_103_153)" fill-opacity="0.6"/>
<path d="M406.199 391.15L407.852 399.702L391.384 403.804L406.199 391.15Z" fill="url(#paint18_linear_103_153)"/>
<path d="M344.244 328.729L341.435 314.607L355.008 319.413L357.817 333.534L344.244 328.729Z" fill="url(#paint19_linear_103_153)"/>
<path d="M355.007 319.415L341.434 314.609L330.655 340.489L355.007 319.415Z" fill="url(#paint20_linear_103_153)" fill-opacity="0.6"/>
<path d="M355.007 319.416L357.832 333.533L330.655 340.49L355.007 319.416Z" fill="url(#paint21_linear_103_153)"/>
<path d="M413.888 471.328L413.061 477.813L417.883 483.314L423.762 482.705L421.261 475.361L413.888 471.328Z" fill="url(#paint22_linear_103_153)" fill-opacity="0.7"/>
<path d="M397.223 495.564L414.969 490.784L422.986 489.683L397.223 495.564Z" fill="url(#paint23_linear_103_153)" fill-opacity="0.8"/>
<path d="M397.224 495.565L405.796 480.275L407.009 471.349L397.224 495.565Z" fill="url(#paint24_linear_103_153)"/>
<path d="M407.007 471.351L405.797 480.28L413.06 477.813L413.888 471.327L407.007 471.351Z" fill="url(#paint25_linear_103_153)" fill-opacity="0.6"/>
<path d="M414.968 490.783L405.798 480.278L413.062 477.811L417.883 483.312L414.968 490.783Z" fill="url(#paint26_linear_103_153)" fill-opacity="0.6"/>
<path d="M414.968 490.786L422.986 489.683L423.762 482.704L417.883 483.313L414.968 490.786Z" fill="url(#paint27_linear_103_153)" fill-opacity="0.8"/>
<path d="M397.223 495.564L418.888 477.849L422.986 489.683L397.223 495.564Z" fill="url(#paint28_linear_103_153)"/>
<path d="M397.223 495.564L418.886 477.848L407.009 471.347L397.223 495.564Z" fill="url(#paint29_linear_103_153)"/>
<path d="M422.986 489.684L418.888 477.848L421.261 475.359L423.761 482.707L422.986 489.684Z" fill="url(#paint30_linear_103_153)" fill-opacity="0.6"/>
<path d="M407.006 471.351L418.886 477.85L421.262 475.361L413.885 471.327L407.006 471.351Z" fill="url(#paint31_linear_103_153)" fill-opacity="0.6"/>
<path d="M397.026 280.416L410.256 304.191L389.473 300.186L397.026 280.416Z" fill="url(#paint32_linear_103_153)"/>
<path d="M397.027 280.416L410.257 304.191L448.869 267.136L397.027 280.416Z" fill="url(#paint33_linear_103_153)"/>
<path d="M365.04 283.999L389.484 300.184L397.027 280.416L365.04 283.999Z" fill="url(#paint34_linear_103_153)"/>
<path d="M390.351 329.484L389.484 300.183L365.041 284.001L351.525 291.85L355.478 319.107L376.556 336.833L390.351 329.484Z" fill="url(#paint35_linear_103_153)" fill-opacity="0.5"/>
<path d="M379.095 321.532L402.434 328.625L410.257 304.191L397.027 280.416L372.14 274.185L365.865 297.757L379.095 321.532Z" fill="url(#paint36_radial_103_153)" fill-opacity="0.5"/>
<path d="M365.865 297.757L379.095 321.531L355.474 319.106L365.865 297.757Z" fill="url(#paint37_linear_103_153)"/>
<path d="M365.865 297.757L379.096 321.532L448.869 267.135L365.865 297.757Z" fill="url(#paint38_linear_103_153)" fill-opacity="0.9"/>
<path d="M376.557 336.834L379.096 321.532L355.474 319.107L376.557 336.834Z" fill="url(#paint39_linear_103_153)" fill-opacity="0.5"/>
<path d="M351.524 291.848L365.865 297.757L355.475 319.109L351.524 291.848Z" fill="url(#paint40_linear_103_153)" fill-opacity="0.5"/>
<path d="M376.557 336.835L379.095 321.533L402.435 328.626L376.557 336.835Z" fill="url(#paint41_linear_103_153)"/>
<path d="M351.525 291.848L365.866 297.757L372.141 274.184L351.525 291.848Z" fill="url(#paint42_linear_103_153)"/>
<path d="M351.525 291.848L365.866 297.757L372.141 274.184L351.525 291.848Z" fill="url(#paint43_linear_103_153)" fill-opacity="0.6"/>
<path d="M448.871 267.135L379.096 321.533L402.435 328.626L448.871 267.135Z" fill="url(#paint44_linear_103_153)" fill-opacity="0.9"/>
<path d="M448.87 267.134L365.864 297.754L372.138 274.182L448.87 267.134Z" fill="url(#paint45_linear_103_153)" fill-opacity="0.9"/>
<defs>
<linearGradient id="paint0_linear_103_153" x1="490.985" y1="373.065" x2="430.435" y2="469.584" gradientUnits="userSpaceOnUse">
<stop stop-color="white"/>
<stop offset="0.165772" stop-color="#71FFF6"/>
<stop offset="0.552083" stop-color="#4F75FF"/>
<stop offset="1" stop-color="#5E64FF" stop-opacity="0"/>
</linearGradient>
<radialGradient id="paint1_radial_103_153" cx="0" cy="0" r="1" gradientUnits="userSpaceOnUse" gradientTransform="translate(455.095 467.565) rotate(-77.9792) scale(75.8329 90.5089)">
<stop offset="0.40625" stop-color="#3330B1" stop-opacity="0.1"/>
<stop offset="0.678936" stop-color="#58FFFF" stop-opacity="0.5"/>
<stop offset="1" stop-color="white"/>
</radialGradient>
<radialGradient id="paint2_radial_103_153" cx="0" cy="0" r="1" gradientUnits="userSpaceOnUse" gradientTransform="translate(449.52 393.708) rotate(123.322) scale(96.4991 165.291)">
<stop stop-color="white"/>
<stop offset="0.298196" stop-color="#5EF5FF"/>
<stop offset="0.538073" stop-color="#3432BD"/>
<stop offset="0.914407" stop-color="#171940"/>
</radialGradient>
<linearGradient id="paint3_linear_103_153" x1="446.566" y1="387.423" x2="423.019" y2="490.666" gradientUnits="userSpaceOnUse">
<stop stop-color="white"/>
<stop offset="1" stop-color="white" stop-opacity="0"/>
</linearGradient>
<linearGradient id="paint4_linear_103_153" x1="488.705" y1="383.984" x2="480.415" y2="456.375" gradientUnits="userSpaceOnUse">
<stop stop-color="white"/>
<stop offset="0.502014" stop-color="#4FFFF4" stop-opacity="0.1"/>
<stop offset="1" stop-color="#5ECFFF" stop-opacity="0.6"/>
</linearGradient>
<linearGradient id="paint5_linear_103_153" x1="481.796" y1="352.422" x2="494.051" y2="515.024" gradientUnits="userSpaceOnUse">
<stop stop-color="white"/>
<stop offset="1" stop-color="white" stop-opacity="0"/>
</linearGradient>
<radialGradient id="paint6_radial_103_153" cx="0" cy="0" r="1" gradientUnits="userSpaceOnUse" gradientTransform="translate(453.073 412.204) rotate(80.7781) scale(80.5046 82.7005)">
<stop offset="0.0729167" stop-color="white"/>
<stop offset="0.507801" stop-color="#C173FF" stop-opacity="0.9"/>
<stop offset="1" stop-color="#0E26FF" stop-opacity="0"/>
</radialGradient>
<radialGradient id="paint7_radial_103_153" cx="0" cy="0" r="1" gradientUnits="userSpaceOnUse" gradientTransform="translate(404.491 505.599) rotate(-55.6889) scale(98.5969 173.478)">
<stop stop-color="#3330B1"/>
<stop offset="1" stop-color="#0A0926"/>
</radialGradient>
<linearGradient id="paint8_linear_103_153" x1="325.518" y1="306.927" x2="460.947" y2="465.477" gradientUnits="userSpaceOnUse">
<stop stop-color="#8FBCFF" stop-opacity="0.6"/>
<stop offset="1" stop-color="#8FBCFF" stop-opacity="0"/>
</linearGradient>
<linearGradient id="paint9_linear_103_153" x1="353.311" y1="339.467" x2="528.907" y2="545.041" gradientUnits="userSpaceOnUse">
<stop stop-color="#8FBCFF" stop-opacity="0.6"/>
<stop offset="1" stop-color="#8FBCFF" stop-opacity="0"/>
</linearGradient>
<linearGradient id="paint10_linear_103_153" x1="288.851" y1="264.002" x2="474.487" y2="481.33" gradientUnits="userSpaceOnUse">
<stop stop-color="white" stop-opacity="0.6"/>
<stop offset="0.34375" stop-color="#8FBCFF" stop-opacity="0.6"/>
<stop offset="1" stop-color="#8FBCFF" stop-opacity="0"/>
</linearGradient>
<linearGradient id="paint11_linear_103_153" x1="458.468" y1="266.017" x2="476.049" y2="342.167" gradientUnits="userSpaceOnUse">
<stop stop-color="#FF48D7"/>
<stop offset="0.234164" stop-color="white" stop-opacity="0.765836"/>
<stop offset="1" stop-color="#FF48D7" stop-opacity="0"/>
</linearGradient>
<linearGradient id="paint12_linear_103_153" x1="310.259" y1="289.064" x2="444.656" y2="446.406" gradientUnits="userSpaceOnUse">
<stop stop-color="#8FBCFF" stop-opacity="0.6"/>
<stop offset="1" stop-color="#8FBCFF" stop-opacity="0"/>
</linearGradient>
<linearGradient id="paint13_linear_103_153" x1="492.153" y1="507.465" x2="509.069" y2="508.795" gradientUnits="userSpaceOnUse">
<stop stop-color="#6083FF"/>
<stop offset="1" stop-color="#0C1E5E" stop-opacity="0"/>
</linearGradient>
<linearGradient id="paint14_linear_103_153" x1="496.155" y1="497.242" x2="482.251" y2="523.667" gradientUnits="userSpaceOnUse">
<stop offset="0.170794" stop-color="#3D3BA9"/>
<stop offset="0.537799" stop-color="#FF7BE2" stop-opacity="0.8"/>
<stop offset="0.791667" stop-color="white"/>
</linearGradient>
<linearGradient id="paint15_linear_103_153" x1="482.415" y1="523.86" x2="507.318" y2="515.732" gradientUnits="userSpaceOnUse">
<stop stop-color="#3DDCFF"/>
<stop offset="0.427083" stop-color="#9D50FF" stop-opacity="0"/>
<stop offset="0.977116" stop-color="#3DDCFF"/>
</linearGradient>
<linearGradient id="paint16_linear_103_153" x1="397.588" y1="393.528" x2="408.262" y2="394.368" gradientUnits="userSpaceOnUse">
<stop stop-color="#6083FF"/>
<stop offset="1" stop-color="#0C1E5E" stop-opacity="0"/>
</linearGradient>
<linearGradient id="paint17_linear_103_153" x1="400.115" y1="387.075" x2="391.341" y2="403.752" gradientUnits="userSpaceOnUse">
<stop offset="0.170794" stop-color="#3D3BA9"/>
<stop offset="0.537799" stop-color="#FF7BE2" stop-opacity="0.8"/>
<stop offset="0.791667" stop-color="white"/>
</linearGradient>
<linearGradient id="paint18_linear_103_153" x1="391.442" y1="403.872" x2="407.158" y2="398.742" gradientUnits="userSpaceOnUse">
<stop stop-color="#3DDCFF"/>
<stop offset="0.427083" stop-color="#9D50FF" stop-opacity="0.5"/>
<stop offset="0.977116" stop-color="#3DDCFF"/>
</linearGradient>
<linearGradient id="paint19_linear_103_153" x1="340.799" y1="323.434" x2="358.453" y2="324.707" gradientUnits="userSpaceOnUse">
<stop stop-color="#6083FF"/>
<stop offset="1" stop-color="#0C1E5E" stop-opacity="0"/>
</linearGradient>
<linearGradient id="paint20_linear_103_153" x1="344.905" y1="312.744" x2="330.581" y2="340.403" gradientUnits="userSpaceOnUse">
<stop offset="0.170794" stop-color="#3D3BA9"/>
<stop offset="0.537799" stop-color="#FF7BE2" stop-opacity="0.8"/>
<stop offset="0.791667" stop-color="white"/>
</linearGradient>
<linearGradient id="paint21_linear_103_153" x1="330.752" y1="340.602" x2="356.674" y2="331.954" gradientUnits="userSpaceOnUse">
<stop stop-color="#3DDCFF"/>
<stop offset="0.427083" stop-color="#9D50FF" stop-opacity="0.5"/>
<stop offset="0.977116" stop-color="#3DDCFF"/>
</linearGradient>
<linearGradient id="paint22_linear_103_153" x1="410.775" y1="475.71" x2="422.209" y2="476.405" gradientUnits="userSpaceOnUse">
<stop stop-color="#6587FF"/>
<stop offset="1" stop-color="#D8E0FF" stop-opacity="0.9"/>
</linearGradient>
<linearGradient id="paint23_linear_103_153" x1="413.343" y1="481.795" x2="421.878" y2="496.889" gradientUnits="userSpaceOnUse">
<stop offset="0.135417" stop-color="white"/>
<stop offset="0.28125" stop-color="#89F8FF" stop-opacity="0.934673"/>
<stop offset="0.645833" stop-color="#71F6FF" stop-opacity="0.921354"/>
<stop offset="1" stop-color="#4A72FF" stop-opacity="0.9"/>
</linearGradient>
<linearGradient id="paint24_linear_103_153" x1="397.289" y1="478.393" x2="405.036" y2="491.415" gradientUnits="userSpaceOnUse">
<stop offset="0.170794" stop-color="#3D3BA9"/>
<stop offset="0.537799" stop-color="#FF7BE2" stop-opacity="0.8"/>
<stop offset="0.791667" stop-color="white"/>
</linearGradient>
<linearGradient id="paint25_linear_103_153" x1="410.162" y1="468.656" x2="414.089" y2="477.576" gradientUnits="userSpaceOnUse">
<stop offset="0.135417" stop-color="white"/>
<stop offset="0.28125" stop-color="#89F8FF" stop-opacity="0.934673"/>
<stop offset="0.645833" stop-color="#71F6FF" stop-opacity="0.921354"/>
<stop offset="1" stop-color="#4A72FF" stop-opacity="0.9"/>
</linearGradient>
<linearGradient id="paint26_linear_103_153" x1="408.655" y1="477.838" x2="405.316" y2="487.381" gradientUnits="userSpaceOnUse">
<stop offset="0.135417" stop-color="white"/>
<stop offset="0.28125" stop-color="#89F8FF" stop-opacity="0.934673"/>
<stop offset="0.645833" stop-color="#71F6FF" stop-opacity="0.921354"/>
<stop offset="1" stop-color="#4A72FF" stop-opacity="0.9"/>
</linearGradient>
<linearGradient id="paint27_linear_103_153" x1="422.556" y1="482.88" x2="426.087" y2="489.672" gradientUnits="userSpaceOnUse">
<stop offset="0.135417" stop-color="white"/>
<stop offset="0.28125" stop-color="#89F8FF" stop-opacity="0.934673"/>
<stop offset="0.645833" stop-color="#71F6FF" stop-opacity="0.921354"/>
<stop offset="1" stop-color="#4A72FF" stop-opacity="0.9"/>
</linearGradient>
<linearGradient id="paint28_linear_103_153" x1="405.307" y1="504.859" x2="409.678" y2="481.097" gradientUnits="userSpaceOnUse">
<stop stop-color="#3DDCFF"/>
<stop offset="0.427083" stop-color="#9D50FF" stop-opacity="0"/>
<stop offset="0.977116" stop-color="#3DDCFF"/>
</linearGradient>
<linearGradient id="paint29_linear_103_153" x1="415.923" y1="468.652" x2="414.218" y2="502.478" gradientUnits="userSpaceOnUse">
<stop offset="0.170794" stop-color="#3D3BA9"/>
<stop offset="0.537799" stop-color="#FF7BE2" stop-opacity="0.8"/>
<stop offset="0.791667" stop-color="white"/>
</linearGradient>
<linearGradient id="paint30_linear_103_153" x1="422.157" y1="475.056" x2="424.451" y2="489.225" gradientUnits="userSpaceOnUse">
<stop offset="0.135417" stop-color="white"/>
<stop offset="0.28125" stop-color="#89F8FF" stop-opacity="0.934673"/>
<stop offset="0.645833" stop-color="#71F6FF" stop-opacity="0.921354"/>
<stop offset="1" stop-color="#4A72FF" stop-opacity="0.9"/>
</linearGradient>
<linearGradient id="paint31_linear_103_153" x1="411.116" y1="476.163" x2="418.557" y2="469.808" gradientUnits="userSpaceOnUse">
<stop stop-color="#3E5ABE"/>
<stop offset="1" stop-color="#3E5ABE" stop-opacity="0"/>
</linearGradient>
<linearGradient id="paint32_linear_103_153" x1="378.098" y1="322.086" x2="358.721" y2="294.511" gradientUnits="userSpaceOnUse">
<stop stop-color="white"/>
<stop offset="0.227296" stop-color="#47FFDE" stop-opacity="0.8"/>
<stop offset="1" stop-color="#6D61FF" stop-opacity="0.5"/>
</linearGradient>
<linearGradient id="paint33_linear_103_153" x1="378.098" y1="322.088" x2="358.721" y2="294.513" gradientUnits="userSpaceOnUse">
<stop stop-color="white"/>
<stop offset="0.227296" stop-color="#47FFDE" stop-opacity="0.8"/>
<stop offset="1" stop-color="#6D61FF" stop-opacity="0.5"/>
</linearGradient>
<linearGradient id="paint34_linear_103_153" x1="370.776" y1="274.944" x2="380.432" y2="294.52" gradientUnits="userSpaceOnUse">
<stop stop-color="white"/>
<stop offset="0.227296" stop-color="#47FFDE" stop-opacity="0.8"/>
<stop offset="1" stop-color="#6D61FF" stop-opacity="0.5"/>
</linearGradient>
<linearGradient id="paint35_linear_103_153" x1="397.658" y1="295.634" x2="347.304" y2="323.655" gradientUnits="userSpaceOnUse">
<stop stop-color="#6D61FF"/>
<stop offset="1" stop-color="#47FFDE"/>
</linearGradient>
<radialGradient id="paint36_radial_103_153" cx="0" cy="0" r="1" gradientUnits="userSpaceOnUse" gradientTransform="translate(388.061 300.974) rotate(-119.095) scale(46.1262 26.4032)">
<stop stop-color="#6D61FF"/>
<stop offset="1" stop-color="#47FFDE"/>
</radialGradient>
<linearGradient id="paint37_linear_103_153" x1="378.097" y1="322.087" x2="358.721" y2="294.512" gradientUnits="userSpaceOnUse">
<stop stop-color="white"/>
<stop offset="0.227296" stop-color="#47FFDE" stop-opacity="0.8"/>
<stop offset="1" stop-color="#6D61FF" stop-opacity="0.5"/>
</linearGradient>
<linearGradient id="paint38_linear_103_153" x1="370.68" y1="320.714" x2="410.691" y2="341.33" gradientUnits="userSpaceOnUse">
<stop offset="0.0729167" stop-color="#4B86FA" stop-opacity="0.8"/>
<stop offset="0.791667" stop-color="#FCA6EF" stop-opacity="0.8"/>
<stop offset="1" stop-color="white"/>
</linearGradient>
<linearGradient id="paint39_linear_103_153" x1="378.738" y1="320.89" x2="353.964" y2="319.79" gradientUnits="userSpaceOnUse">
<stop stop-color="#7BFFE7" stop-opacity="0.8"/>
<stop offset="1" stop-color="#322994" stop-opacity="0.5"/>
</linearGradient>
<linearGradient id="paint40_linear_103_153" x1="366.222" y1="298.399" x2="349.783" y2="295.553" gradientUnits="userSpaceOnUse">
<stop stop-color="#7BFFE7" stop-opacity="0.9"/>
<stop offset="1" stop-color="#322994" stop-opacity="0.5"/>
</linearGradient>
<linearGradient id="paint41_linear_103_153" x1="401.071" y1="329.385" x2="371.28" y2="318.457" gradientUnits="userSpaceOnUse">
<stop stop-color="white"/>
<stop offset="0.586705" stop-color="#47FFDE" stop-opacity="0.9"/>
<stop offset="1" stop-color="#6D61FF" stop-opacity="0.5"/>
</linearGradient>
<linearGradient id="paint42_linear_103_153" x1="352.461" y1="291.903" x2="367.513" y2="300.594" gradientUnits="userSpaceOnUse">
<stop stop-color="#0A3892"/>
<stop offset="0.536458" stop-color="#29B2ED" stop-opacity="0.8"/>
<stop offset="0.967948" stop-color="white"/>
</linearGradient>
<linearGradient id="paint43_linear_103_153" x1="362.552" y1="300.622" x2="361.638" y2="284.854" gradientUnits="userSpaceOnUse">
<stop stop-color="#FF439D"/>
<stop offset="1" stop-color="#FF43D6" stop-opacity="0"/>
</linearGradient>
<linearGradient id="paint44_linear_103_153" x1="439.722" y1="292.06" x2="421.153" y2="274.225" gradientUnits="userSpaceOnUse">
<stop offset="0.0729167" stop-color="#4B86FA" stop-opacity="0.8"/>
<stop offset="0.791667" stop-color="#FCA6EF" stop-opacity="0.8"/>
<stop offset="1" stop-color="white"/>
</linearGradient>
<linearGradient id="paint45_linear_103_153" x1="298.592" y1="286.09" x2="333.439" y2="212.512" gradientUnits="userSpaceOnUse">
<stop offset="0.0729167" stop-color="#4B86FA" stop-opacity="0.8"/>
<stop offset="0.791667" stop-color="#FCA6EF" stop-opacity="0.8"/>
<stop offset="1" stop-color="white"/>
</linearGradient>
</defs>
</svg>
