<svg width="296" height="288" viewBox="0 0 296 288" fill="none" xmlns="http://www.w3.org/2000/svg">
<mask id="mask0_1_786" style="mask-type:alpha" maskUnits="userSpaceOnUse" x="40" y="187" width="205" height="235">
<rect x="40.2378" y="187.159" width="204.609" height="234.722" fill="url(#paint0_linear_1_786)"/>
</mask>
<g mask="url(#mask0_1_786)">
<g opacity="0.8">
<path d="M148.001 201.12L198.556 228.526L222.724 268.64L186.4 400.348L148.001 378.138L148.001 201.12Z" fill="url(#paint1_linear_1_786)"/>
<path opacity="0.8" d="M148 201.12L148.001 292.083L192.65 265.785L198.555 228.527L148 201.12Z" fill="url(#paint2_linear_1_786)" fill-opacity="0.7"/>
<g opacity="0.8">
<path d="M148 201.122L97.4368 228.533L73.2774 268.64L109.601 400.348L148 378.139L148 201.122Z" fill="url(#paint3_linear_1_786)" fill-opacity="0.7"/>
<path d="M148 201.122L97.4368 228.533L73.2774 268.64L109.601 400.348L148 378.139L148 201.122Z" fill="url(#paint4_linear_1_786)" fill-opacity="0.5"/>
</g>
<path d="M148.002 271.061L122.575 256.356L148.002 241.651L173.429 256.356L148.002 271.061Z" fill="url(#paint5_linear_1_786)" fill-opacity="0.5"/>
<path opacity="0.8" d="M148 201.12L148 292.083L103.35 265.785L97.4456 228.527L148 201.12Z" fill="url(#paint6_linear_1_786)"/>
<path d="M73.2787 268.64L97.4465 228.527L103.351 265.784L73.2787 268.64Z" fill="url(#paint7_linear_1_786)" fill-opacity="0.7"/>
<path d="M148.002 305.715L106.62 281.783L148.002 257.85L189.384 281.783L148.002 305.715Z" fill="url(#paint8_linear_1_786)" fill-opacity="0.7"/>
<path d="M148.002 305.715L106.62 281.783L148.002 257.85L189.384 281.783L148.002 305.715Z" fill="url(#paint9_linear_1_786)" fill-opacity="0.7"/>
<path d="M148.002 257.851L106.621 281.782L122.576 256.355L148.002 241.651L148.002 257.851Z" fill="url(#paint10_linear_1_786)" fill-opacity="0.9"/>
<path d="M148.002 257.844L189.383 281.776L168.598 401.284L148.002 389.372L148.002 257.844Z" fill="url(#paint11_linear_1_786)" fill-opacity="0.6"/>
<path d="M148.001 257.844L106.62 281.776L127.405 401.284L148.001 389.372L148.001 257.844Z" fill="url(#paint12_linear_1_786)" fill-opacity="0.9"/>
<path d="M148.002 257.851L189.383 281.782L173.428 256.355L148.002 241.651L148.002 257.851Z" fill="url(#paint13_linear_1_786)" fill-opacity="0.9"/>
<path d="M222.723 268.64L198.555 228.527L192.651 265.784L222.723 268.64Z" fill="url(#paint14_linear_1_786)" fill-opacity="0.7"/>
</g>
</g>
<g filter="url(#filter0_f_1_786)">
<ellipse cx="148" cy="223.589" rx="141" ry="61.5772" fill="url(#paint15_radial_1_786)" fill-opacity="0.6"/>
</g>
<g filter="url(#filter1_f_1_786)">
<ellipse cx="148.001" cy="223.589" rx="100.154" ry="43.7389" fill="url(#paint16_radial_1_786)" fill-opacity="0.6"/>
</g>
<path d="M147.999 172.866L221.387 215.309L147.999 257.752L74.6104 215.309L147.999 172.866Z" fill="url(#paint17_linear_1_786)" fill-opacity="0.5"/>
<path d="M147.999 229.533L97.4442 202.126L73.2762 162.013L109.6 30.3049L147.999 52.5142L147.999 229.533Z" fill="url(#paint18_linear_1_786)"/>
<path opacity="0.8" d="M148 229.533L147.999 138.57L103.35 164.868L97.4448 202.126L148 229.533Z" fill="url(#paint19_linear_1_786)" fill-opacity="0.7"/>
<g opacity="0.8">
<path d="M148 229.532L198.563 202.12L222.722 162.013L186.399 30.3049L148 52.5142L148 229.532Z" fill="url(#paint20_linear_1_786)" fill-opacity="0.7"/>
<path d="M148 229.532L198.563 202.12L222.722 162.013L186.399 30.3049L148 52.5142L148 229.532Z" fill="url(#paint21_linear_1_786)" fill-opacity="0.5"/>
</g>
<path d="M109.598 30.3049L147.999 52.5136L147.999 8.09615L109.598 30.3049Z" fill="url(#paint22_linear_1_786)"/>
<path d="M147.999 159.591L173.425 174.296L147.999 189.002L122.572 174.296L147.999 159.591Z" fill="url(#paint23_linear_1_786)" fill-opacity="0.5"/>
<path d="M186.4 30.3049L147.999 8.09615L147.999 52.5136L186.4 30.3049Z" fill="url(#paint24_linear_1_786)" fill-opacity="0.8"/>
<path d="M147.999 17.4564L168.595 29.3683L147.999 41.2801L127.402 29.3683L147.999 17.4564Z" fill="url(#paint25_linear_1_786)" fill-opacity="0.6"/>
<path opacity="0.8" d="M148 229.532L148.001 138.57L192.65 164.868L198.555 202.125L148 229.532Z" fill="url(#paint26_linear_1_786)"/>
<path d="M222.722 162.012L198.555 202.126L192.65 164.868L222.722 162.012Z" fill="url(#paint27_linear_1_786)" fill-opacity="0.7"/>
<path d="M147.999 124.937L189.381 148.87L147.999 172.803L106.617 148.87L147.999 124.937Z" fill="url(#paint28_linear_1_786)" fill-opacity="0.7"/>
<path d="M147.999 124.937L189.381 148.87L147.999 172.803L106.617 148.87L147.999 124.937Z" fill="url(#paint29_linear_1_786)" fill-opacity="0.7"/>
<path d="M147.998 172.802L189.379 148.87L173.424 174.297L147.998 189.002V172.802Z" fill="url(#paint30_linear_1_786)" fill-opacity="0.9"/>
<path d="M147.432 168.878L107.184 145.601L127.4 29.3684L147.432 40.9541L147.432 168.878Z" fill="url(#paint31_linear_1_786)" fill-opacity="0.6"/>
<path d="M147.999 172.808L189.38 148.876L168.595 29.3684L147.999 41.2805L147.999 172.808Z" fill="url(#paint32_linear_1_786)" fill-opacity="0.9"/>
<path d="M147.998 172.802L106.617 148.87L122.572 174.297L147.998 189.002V172.802Z" fill="url(#paint33_linear_1_786)" fill-opacity="0.9"/>
<path d="M73.2768 162.012L97.4446 202.126L103.349 164.868L73.2768 162.012Z" fill="url(#paint34_linear_1_786)" fill-opacity="0.7"/>
<defs>
<filter id="filter0_f_1_786" x="0.962134" y="155.974" width="294.076" height="135.23" filterUnits="userSpaceOnUse" color-interpolation-filters="sRGB">
<feFlood flood-opacity="0" result="BackgroundImageFix"/>
<feBlend mode="normal" in="SourceGraphic" in2="BackgroundImageFix" result="shape"/>
<feGaussianBlur stdDeviation="3.01893" result="effect1_foregroundBlur_1_786"/>
</filter>
<filter id="filter1_f_1_786" x="41.809" y="173.812" width="212.383" height="99.5536" filterUnits="userSpaceOnUse" color-interpolation-filters="sRGB">
<feFlood flood-opacity="0" result="BackgroundImageFix"/>
<feBlend mode="normal" in="SourceGraphic" in2="BackgroundImageFix" result="shape"/>
<feGaussianBlur stdDeviation="3.01893" result="effect1_foregroundBlur_1_786"/>
</filter>
<linearGradient id="paint0_linear_1_786" x1="142.542" y1="94.4434" x2="142.542" y2="348.158" gradientUnits="userSpaceOnUse">
<stop/>
<stop offset="1" stop-opacity="0"/>
</linearGradient>
<linearGradient id="paint1_linear_1_786" x1="0.921426" y1="414.287" x2="-9.85595" y2="265.354" gradientUnits="userSpaceOnUse">
<stop stop-color="#3D79ED"/>
<stop offset="0.265625" stop-color="#3458C1" stop-opacity="0.7"/>
<stop offset="0.618879" stop-color="#3753B8" stop-opacity="0.7"/>
<stop offset="0.895833" stop-color="#5BB0FF" stop-opacity="0.9"/>
<stop offset="1" stop-color="#5BB0FF" stop-opacity="0.6"/>
</linearGradient>
<linearGradient id="paint2_linear_1_786" x1="153.98" y1="213.124" x2="179.987" y2="270.803" gradientUnits="userSpaceOnUse">
<stop offset="0.046875" stop-color="white"/>
<stop offset="0.427083" stop-color="#DFF4FF"/>
<stop offset="0.994792" stop-color="#0E42C8"/>
</linearGradient>
<linearGradient id="paint3_linear_1_786" x1="73.2776" y1="195.632" x2="159.83" y2="261.669" gradientUnits="userSpaceOnUse">
<stop offset="0.280479" stop-color="white"/>
<stop offset="0.469567" stop-color="#FF79DA"/>
<stop offset="0.692708" stop-color="#3D3AE3" stop-opacity="0.9"/>
</linearGradient>
<linearGradient id="paint4_linear_1_786" x1="73.2776" y1="204.864" x2="158.839" y2="286.981" gradientUnits="userSpaceOnUse">
<stop offset="0.161458" stop-color="white"/>
<stop offset="1" stop-color="white" stop-opacity="0"/>
</linearGradient>
<linearGradient id="paint5_linear_1_786" x1="133.408" y1="248.061" x2="168.398" y2="256.356" gradientUnits="userSpaceOnUse">
<stop stop-color="#81FF6C"/>
<stop offset="1" stop-color="#31F3FF"/>
</linearGradient>
<linearGradient id="paint6_linear_1_786" x1="107.333" y1="215.554" x2="126.243" y2="282.667" gradientUnits="userSpaceOnUse">
<stop offset="0.103809" stop-color="white"/>
<stop offset="0.436548" stop-color="#FFAACE" stop-opacity="0.8"/>
<stop offset="0.71875" stop-color="#6F97FF" stop-opacity="0.8"/>
</linearGradient>
<linearGradient id="paint7_linear_1_786" x1="88.3148" y1="238.877" x2="103.351" y2="268.64" gradientUnits="userSpaceOnUse">
<stop stop-color="white"/>
<stop offset="0.591466" stop-color="#FF94D4"/>
<stop offset="1" stop-color="#C994FF"/>
</linearGradient>
<linearGradient id="paint8_linear_1_786" x1="124.25" y1="268.282" x2="181.197" y2="281.783" gradientUnits="userSpaceOnUse">
<stop stop-color="#81FF6C"/>
<stop offset="1" stop-color="#31F3FF"/>
</linearGradient>
<linearGradient id="paint9_linear_1_786" x1="148.002" y1="259.568" x2="148.002" y2="306.808" gradientUnits="userSpaceOnUse">
<stop stop-color="white"/>
<stop offset="1" stop-color="white" stop-opacity="0"/>
</linearGradient>
<linearGradient id="paint10_linear_1_786" x1="104.602" y1="281.782" x2="146.954" y2="243.542" gradientUnits="userSpaceOnUse">
<stop offset="0.149863" stop-color="white"/>
<stop offset="0.300261" stop-color="#8CFF31"/>
<stop offset="0.449118" stop-color="#45C3EB"/>
<stop offset="1" stop-color="#72E6FF"/>
</linearGradient>
<linearGradient id="paint11_linear_1_786" x1="166.478" y1="257.844" x2="232.119" y2="303.84" gradientUnits="userSpaceOnUse">
<stop stop-color="#6CFFED"/>
<stop offset="1" stop-color="#197F9F"/>
</linearGradient>
<linearGradient id="paint12_linear_1_786" x1="3.38238" y1="311.622" x2="71.9468" y2="383.413" gradientUnits="userSpaceOnUse">
<stop offset="0.464598" stop-color="white"/>
<stop offset="0.790313" stop-color="#6DF390"/>
<stop offset="1" stop-color="#21CAFF" stop-opacity="0.9"/>
</linearGradient>
<linearGradient id="paint13_linear_1_786" x1="189.383" y1="281.782" x2="149.048" y2="243.597" gradientUnits="userSpaceOnUse">
<stop offset="0.125" stop-color="white"/>
<stop offset="0.297772" stop-color="#8CFF31"/>
<stop offset="0.447917" stop-color="#5BF5FF"/>
</linearGradient>
<linearGradient id="paint14_linear_1_786" x1="196.982" y1="225.271" x2="202.813" y2="268.64" gradientUnits="userSpaceOnUse">
<stop stop-color="#DFF4FF"/>
<stop offset="0.994792" stop-color="#0E42C8"/>
</linearGradient>
<radialGradient id="paint15_radial_1_786" cx="0" cy="0" r="1" gradientUnits="userSpaceOnUse" gradientTransform="translate(148 223.589) rotate(90) scale(61.5772 141)">
<stop stop-color="#739AFF"/>
<stop offset="1" stop-color="#6978FF" stop-opacity="0"/>
</radialGradient>
<radialGradient id="paint16_radial_1_786" cx="0" cy="0" r="1" gradientUnits="userSpaceOnUse" gradientTransform="translate(148.001 223.589) rotate(90) scale(43.7389 100.154)">
<stop stop-color="#739AFF"/>
<stop offset="1" stop-color="#6978FF" stop-opacity="0"/>
</radialGradient>
<linearGradient id="paint17_linear_1_786" x1="184.693" y1="178.615" x2="111.305" y2="252.003" gradientUnits="userSpaceOnUse">
<stop stop-color="#6C7BFF"/>
<stop offset="1" stop-color="#31B5FF"/>
</linearGradient>
<linearGradient id="paint18_linear_1_786" x1="295.078" y1="16.3659" x2="305.856" y2="165.298" gradientUnits="userSpaceOnUse">
<stop stop-color="#3D79ED"/>
<stop offset="0.265625" stop-color="#3458C1" stop-opacity="0.7"/>
<stop offset="0.618879" stop-color="#3753B8" stop-opacity="0.7"/>
<stop offset="0.895833" stop-color="#5BB0FF" stop-opacity="0.9"/>
<stop offset="1" stop-color="#5BB0FF" stop-opacity="0.6"/>
</linearGradient>
<linearGradient id="paint19_linear_1_786" x1="142.02" y1="217.528" x2="116.013" y2="159.85" gradientUnits="userSpaceOnUse">
<stop offset="0.046875" stop-color="white"/>
<stop offset="0.427083" stop-color="#DFF4FF"/>
<stop offset="0.994792" stop-color="#0E42C8"/>
</linearGradient>
<linearGradient id="paint20_linear_1_786" x1="222.722" y1="235.021" x2="136.17" y2="168.984" gradientUnits="userSpaceOnUse">
<stop offset="0.280479" stop-color="white"/>
<stop offset="0.469567" stop-color="#FF79DA"/>
<stop offset="0.692708" stop-color="#3D3AE3" stop-opacity="0.9"/>
</linearGradient>
<linearGradient id="paint21_linear_1_786" x1="222.722" y1="225.789" x2="137.161" y2="143.672" gradientUnits="userSpaceOnUse">
<stop offset="0.161458" stop-color="white"/>
<stop offset="1" stop-color="white" stop-opacity="0"/>
</linearGradient>
<linearGradient id="paint22_linear_1_786" x1="148.094" y1="8.83447" x2="127.929" y2="41.8756" gradientUnits="userSpaceOnUse">
<stop stop-color="#1AD6FF"/>
<stop offset="1" stop-color="#496BE4" stop-opacity="0.6"/>
<stop offset="1" stop-color="#1F3CA3"/>
</linearGradient>
<linearGradient id="paint23_linear_1_786" x1="162.593" y1="182.592" x2="127.602" y2="174.296" gradientUnits="userSpaceOnUse">
<stop stop-color="#81FF6C"/>
<stop offset="1" stop-color="#31F3FF"/>
</linearGradient>
<linearGradient id="paint24_linear_1_786" x1="186.4" y1="28.0275" x2="149.794" y2="24.6262" gradientUnits="userSpaceOnUse">
<stop stop-color="#FF79C9"/>
<stop offset="1" stop-color="#1F3CA3"/>
</linearGradient>
<linearGradient id="paint25_linear_1_786" x1="164.615" y1="32.1579" x2="140.32" y2="29.3682" gradientUnits="userSpaceOnUse">
<stop stop-color="#52FF6E"/>
<stop offset="1" stop-color="#31FFFF"/>
</linearGradient>
<linearGradient id="paint26_linear_1_786" x1="188.667" y1="215.099" x2="169.757" y2="147.985" gradientUnits="userSpaceOnUse">
<stop offset="0.103809" stop-color="white"/>
<stop offset="0.436548" stop-color="#FFAACE" stop-opacity="0.8"/>
<stop offset="0.71875" stop-color="#6F97FF" stop-opacity="0.8"/>
</linearGradient>
<linearGradient id="paint27_linear_1_786" x1="207.686" y1="191.776" x2="192.65" y2="162.012" gradientUnits="userSpaceOnUse">
<stop stop-color="white"/>
<stop offset="0.591466" stop-color="#FF94D4"/>
<stop offset="1" stop-color="#C994FF"/>
</linearGradient>
<linearGradient id="paint28_linear_1_786" x1="171.75" y1="162.371" x2="114.804" y2="148.87" gradientUnits="userSpaceOnUse">
<stop stop-color="#81FF6C"/>
<stop offset="1" stop-color="#31F3FF"/>
</linearGradient>
<linearGradient id="paint29_linear_1_786" x1="147.999" y1="171.084" x2="147.999" y2="123.845" gradientUnits="userSpaceOnUse">
<stop stop-color="white"/>
<stop offset="1" stop-color="white" stop-opacity="0"/>
</linearGradient>
<linearGradient id="paint30_linear_1_786" x1="191.398" y1="148.87" x2="149.046" y2="187.11" gradientUnits="userSpaceOnUse">
<stop offset="0.149863" stop-color="white"/>
<stop offset="0.300261" stop-color="#8CFF31"/>
<stop offset="0.449118" stop-color="#45C3EB"/>
<stop offset="1" stop-color="#72E6FF"/>
</linearGradient>
<linearGradient id="paint31_linear_1_786" x1="129.462" y1="168.878" x2="65.6197" y2="124.142" gradientUnits="userSpaceOnUse">
<stop stop-color="#6CFFED"/>
<stop offset="1" stop-color="#197F9F"/>
</linearGradient>
<linearGradient id="paint32_linear_1_786" x1="292.617" y1="119.03" x2="224.053" y2="47.2397" gradientUnits="userSpaceOnUse">
<stop offset="0.464598" stop-color="white"/>
<stop offset="0.790313" stop-color="#6DF390"/>
<stop offset="1" stop-color="#21CAFF" stop-opacity="0.9"/>
</linearGradient>
<linearGradient id="paint33_linear_1_786" x1="106.617" y1="148.87" x2="146.952" y2="187.055" gradientUnits="userSpaceOnUse">
<stop offset="0.125" stop-color="white"/>
<stop offset="0.297772" stop-color="#8CFF31"/>
<stop offset="0.447917" stop-color="#5BF5FF"/>
</linearGradient>
<linearGradient id="paint34_linear_1_786" x1="99.0179" y1="205.381" x2="93.1871" y2="162.012" gradientUnits="userSpaceOnUse">
<stop stop-color="#DFF4FF"/>
<stop offset="0.994792" stop-color="#0E42C8"/>
</linearGradient>
</defs>
</svg>
