<svg width="265" height="346" viewBox="0 0 265 346" fill="none" xmlns="http://www.w3.org/2000/svg">
<path d="M0 212.325C0 139.244 59.2439 80 132.325 80C205.406 80 264.65 139.244 264.65 212.325C264.65 285.406 205.406 344.65 132.325 344.65C59.2439 344.65 0 285.406 0 212.325Z" fill="url(#paint0_linear_1_388)" fill-opacity="0.8"/>
<path d="M0.209375 212.325C0.209375 139.36 59.3596 80.2094 132.325 80.2094C205.29 80.2094 264.441 139.36 264.441 212.325C264.441 285.29 205.29 344.441 132.325 344.441C59.3596 344.441 0.209375 285.29 0.209375 212.325Z" stroke="black" stroke-opacity="0.15" stroke-width="0.41875"/>
<g clip-path="url(#clip0_1_388)">
<path fill-rule="evenodd" clip-rule="evenodd" d="M98.4026 492.752C97.35 432.922 74.7233 306.805 71.4726 274.323C68.223 241.841 79.7834 230.84 90.868 236.199C101.953 241.56 105.269 316.505 105.269 316.505C105.269 316.505 106.032 331.172 108.925 347.876C119.384 408.259 112.043 493.611 112.043 493.611C112.043 493.611 110.016 499.171 103.88 498.43C97.7456 497.689 98.4026 492.752 98.4026 492.752Z" fill="#FFC999"/>
<path fill-rule="evenodd" clip-rule="evenodd" d="M33.5176 490.14C34.5703 430.31 57.197 304.193 60.4466 271.711C63.6973 239.229 52.1357 228.228 41.0522 233.588C29.9676 238.948 26.6504 313.893 26.6504 313.893C26.6504 313.893 25.8879 328.561 22.9949 345.264C12.5364 405.648 19.8772 490.999 19.8772 490.999C19.8772 490.999 21.9044 496.559 28.0401 495.818C34.1735 495.077 33.5176 490.14 33.5176 490.14Z" fill="#FFC999"/>
<path fill-rule="evenodd" clip-rule="evenodd" d="M40.2284 220.855L40.9668 216.377C40.9668 216.377 60.9127 216.394 84.7135 216.541C84.8764 218.825 85.5299 221.601 85.5299 221.601C85.5299 221.601 68.3326 227.369 40.2284 220.855Z" fill="#002AB3"/>
<path fill-rule="evenodd" clip-rule="evenodd" d="M88.5901 188.84L86.9149 193.121C86.9149 193.121 86.4551 214.267 86.4551 215.942C63.6013 219.641 40.4586 215.652 40.4586 215.652L40.571 207.825L38.71 183.816L88.5901 188.84Z" fill="white"/>
<path d="M88.2437 188.519C88.3186 188.328 88.5345 188.233 88.7258 188.308C88.8959 188.375 88.9894 188.553 88.9555 188.726L88.9367 188.79L87.2846 193.01L86.6184 215.552C86.6125 215.842 86.6094 216.046 86.6094 216.159C86.6094 216.338 86.4815 216.492 86.3052 216.525C73.1224 218.971 59.6321 218.836 47.223 217.139C45.4533 216.897 43.8467 216.639 42.4225 216.38L41.9545 216.293C41.5057 216.209 41.1032 216.13 40.749 216.057L40.0496 215.907C39.8952 215.872 39.7828 215.743 39.7638 215.591L39.7616 215.524L40.1996 207.618C40.211 207.413 40.3865 207.256 40.5917 207.267C40.7741 207.277 40.9185 207.417 40.9403 207.592L40.9426 207.659L40.5215 215.248L40.6951 215.286C40.9596 215.341 41.2551 215.401 41.5808 215.464L42.0917 215.562C43.6171 215.848 45.3699 216.134 47.3238 216.401C59.3922 218.052 72.4918 218.217 85.315 215.948L85.8681 215.847L85.9285 213.36L86.2341 202.921L86.5431 192.923L86.5685 192.799L88.2437 188.519Z" fill="#1F1F47"/>
<path fill-rule="evenodd" clip-rule="evenodd" d="M111.338 109.946C111.338 109.946 122.595 108.313 125.569 120.212C136.476 124.178 133.502 136.076 133.502 136.076C133.502 136.076 138.979 145.423 128.097 150.211C127.226 159.788 116.344 158.046 116.344 158.046C116.344 158.046 113.732 165.447 105.462 162.4C96.5384 169.341 85.9067 160.865 85.9067 160.865C85.9067 160.865 75.9917 164.831 72.0266 160.865C63.1023 163.839 53.1861 152.932 53.1861 152.932C53.1861 152.932 47.6157 154.347 43.6495 145.423C33.2896 147.031 21.9711 133.827 31.4607 121.481C25.2356 111.627 32.331 105.81 32.331 105.81C32.331 105.81 30.3725 83.1741 46.0437 80.1275C54.0954 67.9387 71.5084 77.7333 71.5084 77.7333C71.5084 77.7333 83.0436 75.3391 87.1795 85.3516C100.069 87.3341 99.4647 94.4192 100.457 100.369C111.991 101.022 111.338 109.946 111.338 109.946Z" fill="black"/>
<path fill-rule="evenodd" clip-rule="evenodd" d="M75.5717 98.8932C66.5327 100.479 63.7865 93.6404 63.7865 93.6404C63.7865 93.6404 60.0576 84.0086 59.1025 89.9219C58.5945 93.0648 53.7362 88.8945 51.5025 92.245C49.9993 94.4993 53.758 97.4049 48.8733 103.416C46.0433 106.898 57.2048 109.677 50.3192 116.096C50.3192 116.096 55.2153 123.931 46.8047 126.487L44.9449 135.61L64.3277 135.58L63.7039 125.075C76.7631 125.075 77.4006 107.125 75.5717 98.8932Z" fill="#FFC999"/>
<path d="M58.9094 108.448C59.1358 108.221 59.5028 108.221 59.7291 108.448L59.8476 108.556C59.9017 108.603 59.9705 108.66 60.0533 108.726C60.3366 108.95 60.6694 109.175 61.0477 109.385C62.3302 110.098 63.7938 110.468 65.4047 110.311C65.7234 110.28 66.0067 110.514 66.0376 110.832C66.0685 111.151 65.8353 111.434 65.5167 111.465C63.6528 111.646 61.96 111.219 60.4843 110.398C59.7358 109.982 59.2035 109.561 58.9094 109.267C58.6831 109.041 58.6831 108.674 58.9094 108.448Z" fill="#F5222D"/>
<path d="M66.0405 99.3869C66.2696 99.4032 66.4478 99.5839 66.4679 99.8055L66.4685 99.8858C66.4574 100.192 66.5179 100.706 66.7198 101.404C67.045 102.529 67.6527 103.792 68.6145 105.17C68.7657 105.386 68.7049 105.685 68.4811 105.826L67.8813 106.198C67.1044 106.676 66.4193 107.077 65.8241 107.408L65.6051 107.529C65.4388 107.619 65.2871 107.701 65.1499 107.772L64.6813 108.009C64.6697 108.015 64.6596 108.019 64.6511 108.023C64.4194 108.13 64.1448 108.029 64.0379 107.797C63.9309 107.566 64.032 107.291 64.2637 107.184L64.4783 107.079L64.8591 106.881C64.9534 106.831 65.0543 106.776 65.1616 106.718C65.7137 106.416 66.3529 106.046 67.0811 105.604L67.583 105.295L67.4684 105.12C66.7304 103.975 66.2216 102.9 65.9066 101.907L65.8319 101.661C65.6232 100.939 65.5447 100.368 65.5431 99.9675L65.5468 99.815C65.5649 99.5604 65.7859 99.3687 66.0405 99.3869Z" fill="#DD936F"/>
<path fill-rule="evenodd" clip-rule="evenodd" d="M67.9001 207.889C67.9001 207.889 92.6745 214.459 103.976 206.583C116.26 198.022 101.217 165.446 97.2828 156.958C93.906 149.67 86.5434 144.948 79.8424 143.832C73.2492 142.733 68.2108 142.342 68.2108 142.342L66.7626 136.698C66.5517 135.876 65.8109 135.301 64.9624 135.301H45.2103C44.285 135.301 43.5018 135.982 43.37 136.897L42.6074 142.242C42.6074 142.242 25.9811 141.619 18.1117 148.905C10.5748 155.885 12.7523 171.549 19.0749 186.049C25.3963 200.549 30.7213 212.056 41.2922 213.113C60.8345 215.067 91.3822 198.053 91.3822 198.053C91.3822 198.053 96.5925 195.262 101.433 196.006C100.316 189.305 96.5926 184.466 85.7981 187.258L47.272 195.262" fill="white"/>
<path fill-rule="evenodd" clip-rule="evenodd" d="M91.5676 175.626C91.5676 175.626 93.4298 181.767 89.5679 186.746L89.9864 193.167L62.6263 207.965C62.6263 207.965 92.4035 214.83 104.302 207.889C113.227 202.683 110.661 187.877 103.813 172.955C103.813 172.955 98.4257 171.324 91.5676 175.626Z" fill="#FFC999"/>
<path fill-rule="evenodd" clip-rule="evenodd" d="M37.9654 177.301L45.5963 193.866L76.1165 185.58C85.2369 183.159 94.918 186.607 97.3374 193.866C92.8712 194.424 84.4021 196.378 84.4021 196.378C84.4021 196.378 55.0893 214.665 40.2919 213.967C29.6797 213.466 25.5507 201.107 19.2281 186.607C19.2281 186.607 23.0762 178.418 37.9654 177.301Z" fill="#FFC999"/>
<path d="M87.6596 159.62C87.8651 159.62 88.0317 159.786 88.0317 159.992L88.0258 160.51L88.0142 161.024C88.0068 161.291 87.9972 161.573 87.9849 161.868C87.9362 163.039 87.855 164.211 87.7344 165.329L87.6775 165.815L87.8506 165.994C89.0219 167.234 89.9562 168.552 90.6675 169.937L90.8407 170.285C92.9394 174.635 92.8022 179.268 91.3156 183.641C91.0772 184.343 90.8216 184.976 90.5655 185.531L90.4355 185.807L90.2178 186.231C90.1172 186.41 89.8904 186.474 89.7112 186.374C89.532 186.273 89.4682 186.046 89.5688 185.867L89.6752 185.666C89.7336 185.55 89.8062 185.401 89.8897 185.22C90.1353 184.687 90.3813 184.078 90.611 183.402C92.0403 179.197 92.1719 174.757 90.1705 170.609C89.4197 169.053 88.3787 167.582 87.0233 166.209C86.9432 166.128 86.9048 166.014 86.9189 165.901C87.08 164.61 87.1837 163.224 87.2414 161.837L87.2703 161.004L87.287 160.109L87.2875 159.992C87.2875 159.786 87.4541 159.62 87.6596 159.62Z" fill="#1F1F47"/>
<path d="M60.268 142.149C60.4735 142.149 60.6401 142.316 60.6401 142.521C60.6401 142.704 60.5085 142.856 60.3349 142.887L60.268 142.893H42.4824C42.2769 142.893 42.1104 142.727 42.1104 142.521C42.1104 142.338 42.242 142.187 42.4155 142.155L42.4824 142.149H60.268Z" fill="#1F1F47"/>
<path d="M68.6267 142.202C68.6865 141.97 68.9234 141.83 69.1559 141.89C69.3651 141.944 69.4994 142.141 69.4806 142.349L69.4685 142.419L63.6057 165.219C63.5264 165.527 63.1597 165.641 62.9202 165.456L62.8674 165.407L41.557 142.607C41.3931 142.432 41.4024 142.157 41.5777 141.993C41.7336 141.847 41.9682 141.839 42.1335 141.962L42.192 142.014L62.9605 164.235L68.6267 142.202Z" fill="black"/>
<path fill-rule="evenodd" clip-rule="evenodd" d="M69.3558 167.649C71.3281 170.976 70.4383 175.147 67.371 176.967C64.3015 178.787 60.2148 177.564 58.2426 174.239C56.2704 170.913 57.159 166.741 60.2274 164.921C63.297 163.102 67.3825 164.323 69.3558 167.649Z" fill="black"/>
<path fill-rule="evenodd" clip-rule="evenodd" d="M70.0636 167.633C72.037 170.96 71.1472 175.131 68.0787 176.95C65.0103 178.769 60.9237 177.548 58.9515 174.222C56.9792 170.895 57.8679 166.725 60.9363 164.905C64.0047 163.086 68.0914 164.307 70.0636 167.633Z" fill="black"/>
<path fill-rule="evenodd" clip-rule="evenodd" d="M68.8117 168.212C70.3424 170.795 69.6522 174.034 67.2694 175.447C64.8879 176.859 61.7151 175.911 60.1843 173.329C58.6524 170.745 59.3415 167.507 61.7243 166.095C64.107 164.681 67.2798 165.63 68.8117 168.212Z" fill="#8352FD"/>
<path d="M54.9727 122.895C55.0947 122.67 55.3753 122.587 55.5995 122.709C58.127 124.084 60.7464 124.775 63.3748 124.811C63.6299 124.815 63.834 125.024 63.8305 125.28C63.827 125.535 63.6173 125.739 63.3621 125.735C60.5831 125.697 57.8166 124.968 55.1578 123.521C54.9336 123.399 54.8507 123.119 54.9727 122.895Z" fill="#DD936F"/>
<path fill-rule="evenodd" clip-rule="evenodd" d="M59.0305 190.15C59.0305 190.15 47.8862 180.813 41.0373 181.302C34.5221 181.768 30.6144 187.072 31.73 190.05C31.73 190.05 30.2428 192.657 32.6611 193.494C32.3355 195.402 35.0805 195.262 35.0805 195.262C35.0805 195.262 34.6161 196.471 36.57 196.75C38.5239 197.03 40.6819 193.027 45.7546 193.85L59.0305 190.15Z" fill="#FFC999"/>
<path d="M40.7583 180.597C37.7065 180.815 34.4315 182.989 32.0786 185.893C31.0912 187.112 30.4108 188.312 30.2193 189.191L30.1964 189.309C30.0712 190.046 30.3237 190.573 30.8649 190.745L30.8988 190.755L30.8567 190.852C30.704 191.226 30.6303 191.606 30.6689 191.983L30.6874 192.116C30.788 192.685 31.1538 193.153 31.7859 193.481L31.927 193.549L31.9268 193.581C31.9333 194.49 32.5459 195.067 33.4907 195.326L33.6906 195.375C33.8903 195.419 34.0886 195.448 34.2786 195.464L34.3311 195.467L34.3347 195.505C34.3566 195.677 34.4123 195.851 34.5109 196.021C34.7953 196.512 35.3732 196.836 36.2599 196.963C36.7536 197.034 37.242 196.909 37.8212 196.61L37.9978 196.514C38.3573 196.313 39.729 195.408 39.7453 195.397C41.6591 194.189 43.2795 193.712 45.4357 194.062C45.4988 194.072 45.5634 194.069 45.6253 194.053L59.4125 190.49C59.7796 190.396 59.8826 189.924 59.5884 189.684L59.0914 189.291L58.5863 188.903C58.3205 188.701 58.0354 188.487 57.7325 188.264C56.2904 187.202 54.7398 186.14 53.1395 185.148C51.2926 184.004 49.4978 183.027 47.7975 182.271C45.1951 181.113 42.9095 180.512 41.0143 180.583L40.7583 180.597ZM47.4218 183.115C49.08 183.853 50.839 184.81 52.6527 185.934C54.2303 186.912 55.761 187.96 57.1845 189.008L57.8489 189.504L58.2761 189.829L45.4849 193.134L45.5838 193.149C43.265 192.773 41.4813 193.257 39.4916 194.467L39.2518 194.616C39.2089 194.643 37.8712 195.526 37.5467 195.708C37.049 195.986 36.6924 196.091 36.3906 196.048C35.7622 195.958 35.4369 195.776 35.3108 195.558C35.2586 195.468 35.2423 195.369 35.2512 195.274L35.267 195.183C35.3782 194.893 35.1786 194.586 34.8771 194.557L34.7914 194.556C34.4865 194.565 34.0982 194.534 33.7353 194.435C33.064 194.25 32.77 193.927 32.8728 193.327C32.911 193.104 32.7823 192.886 32.5685 192.812C31.903 192.582 31.6276 192.273 31.5883 191.889C31.5604 191.616 31.6502 191.294 31.8237 190.965C31.9184 190.785 32.0123 190.648 32.0684 190.578C32.346 190.234 32.0281 189.734 31.5986 189.84L31.4321 189.876C31.0616 189.946 31.0239 189.84 31.1223 189.388C31.2775 188.676 31.892 187.592 32.7967 186.475C35.0037 183.751 38.0697 181.716 40.8242 181.519C42.5878 181.393 44.8273 181.961 47.4218 183.115Z" fill="#DD936F"/>
<path d="M40.7008 183.822C40.9541 183.79 41.185 183.97 41.2167 184.223C41.2483 184.476 41.0687 184.707 40.8154 184.739C39.0577 184.958 37.1533 185.962 35.2368 187.501C34.4605 188.125 33.7359 188.794 33.0839 189.464L32.7615 189.801L32.3711 190.231C32.3251 190.283 32.2913 190.322 32.2704 190.347C32.1063 190.543 31.8148 190.568 31.6193 190.404C31.4238 190.24 31.3984 189.949 31.5624 189.753L31.7914 189.492C31.9739 189.288 32.1849 189.062 32.422 188.819C33.0986 188.124 33.8502 187.43 34.658 186.781C36.6959 185.144 38.7402 184.067 40.7008 183.822Z" fill="#DD936F"/>
<path d="M43.7745 186.317C44.0296 186.308 44.2432 186.508 44.2517 186.763C44.2602 187.018 44.0603 187.232 43.8052 187.24C43.6509 187.246 43.4951 187.256 43.3379 187.271C41.1568 187.477 38.7859 188.595 36.3923 190.333C35.449 191.019 34.5678 191.754 33.774 192.489C33.5659 192.681 33.3752 192.863 33.2032 193.032L32.8128 193.427C32.8008 193.44 32.7904 193.451 32.7818 193.46C32.6078 193.647 32.3154 193.657 32.1287 193.483C31.9421 193.309 31.9318 193.016 32.1058 192.83L32.3825 192.545L32.7396 192.194C32.867 192.071 33.0027 191.943 33.1462 191.81C33.9653 191.052 34.8741 190.294 35.8491 189.586C38.3645 187.758 40.8741 186.576 43.2508 186.35C43.4266 186.334 43.6011 186.323 43.7745 186.317Z" fill="#DD936F"/>
<path d="M43.7602 189.255C44.0149 189.239 44.2345 189.432 44.2507 189.687C44.2669 189.942 44.0735 190.161 43.8188 190.177C43.03 190.228 42.05 190.566 40.9302 191.153C40.1411 191.566 39.3029 192.091 38.4373 192.702C37.6376 193.266 36.8588 193.872 36.1329 194.478L35.7711 194.783L35.2052 195.281C35.0171 195.453 34.7248 195.441 34.5523 195.253C34.3797 195.065 34.3922 194.772 34.5802 194.6L34.839 194.369L35.1696 194.082C35.2867 193.981 35.4106 193.877 35.5408 193.768C36.2847 193.147 37.0826 192.527 37.9044 191.947C38.801 191.314 39.6727 190.768 40.5014 190.334C41.7258 189.693 42.8191 189.315 43.7602 189.255Z" fill="#DD936F"/>
<path d="M33.5429 165.207C33.715 165.146 33.9023 165.219 33.9901 165.372L34.0182 165.433L38.1301 176.99C38.2137 177.225 38.0466 177.474 37.7972 177.486L37.5831 177.5C37.4047 177.513 37.1972 177.53 36.963 177.554C36.2924 177.62 35.5444 177.718 34.7385 177.854C32.4368 178.24 30.1358 178.849 27.9919 179.725C24.0706 181.327 21.1317 183.639 19.5606 186.773C19.4685 186.957 19.2449 187.031 19.0612 186.939C18.8775 186.847 18.8032 186.623 18.8953 186.44C20.5584 183.122 23.6367 180.701 27.7103 179.036C29.9101 178.137 32.263 177.515 34.6152 177.12C35.3011 177.004 35.9463 176.916 36.5397 176.85L37.0652 176.796L37.265 176.778L33.3171 165.682C33.2558 165.51 33.3289 165.323 33.4819 165.235L33.5429 165.207Z" fill="#1F1F47"/>
<path d="M95.015 173.559C97.8814 172.321 100.925 171.816 103.931 172.471C104.132 172.515 104.259 172.713 104.215 172.914C104.171 173.115 103.973 173.242 103.772 173.198C100.939 172.581 98.0455 173.061 95.3101 174.242C94.7562 174.482 94.2458 174.735 93.7856 174.991L93.5155 175.144C93.2011 175.327 92.9829 175.468 92.8723 175.546C92.7042 175.664 92.4721 175.623 92.3539 175.455C92.2356 175.287 92.276 175.055 92.4441 174.937L92.6294 174.814C92.7761 174.719 92.9472 174.614 93.1413 174.501C93.6938 174.179 94.3219 173.859 95.015 173.559Z" fill="#1F1F47"/>
<path d="M89.3973 185.944C89.4979 185.709 89.7695 185.6 90.0041 185.701C91.6445 186.404 93.1564 187.532 94.5328 188.966C95.3736 189.842 96.1131 190.779 96.7462 191.716C96.9126 191.962 97.0627 192.196 97.1962 192.413L97.4281 192.802C97.4725 192.88 97.5055 192.939 97.527 192.979C97.6622 193.233 97.5352 193.54 97.2745 193.632L97.2066 193.651L88.7821 195.271L60.9734 209.228C60.7681 209.331 60.5227 209.267 60.3922 209.087L60.3531 209.023C60.2501 208.817 60.3144 208.572 60.4946 208.441L60.5588 208.402L88.4246 194.417L88.5446 194.376L96.3897 192.867L96.2765 192.685C96.2307 192.613 96.1831 192.539 96.1337 192.464L95.9803 192.233C95.375 191.337 94.6676 190.441 93.8661 189.606C92.5693 188.255 91.1547 187.199 89.6401 186.55C89.4055 186.45 89.2968 186.178 89.3973 185.944Z" fill="#DD936F"/>
<path d="M40.5542 220.63C40.6304 220.402 40.8766 220.279 41.1043 220.356L41.5716 220.503L41.9827 220.626C42.2718 220.712 42.5905 220.802 42.9379 220.897C44.4292 221.307 46.1363 221.716 48.0313 222.098C60.0533 224.523 72.8513 224.705 84.9193 221.184C85.1497 221.117 85.391 221.249 85.4582 221.48C85.5254 221.71 85.3931 221.951 85.1627 222.019C72.9405 225.584 60.0076 225.4 47.8595 222.95C45.9444 222.564 44.2179 222.15 42.708 221.736L42.2004 221.594C41.9574 221.525 41.731 221.459 41.5214 221.396L40.9401 221.216C40.8942 221.202 40.857 221.189 40.8285 221.18C40.6009 221.104 40.4781 220.857 40.5542 220.63Z" fill="black"/>
<path d="M59.9711 99.3264C60.2791 99.3264 60.5289 99.5762 60.5289 99.8842C60.5289 102.028 58.915 103.783 56.8992 103.783C54.8845 103.783 53.2718 102.028 53.2718 99.8842C53.2718 99.5762 53.5215 99.3264 53.8296 99.3264C54.1377 99.3264 54.3875 99.5762 54.3875 99.8842C54.3875 101.432 55.5228 102.668 56.8992 102.668C58.2769 102.668 59.4132 101.431 59.4132 99.8842C59.4132 99.5762 59.663 99.3264 59.9711 99.3264Z" fill="black"/>
<path d="M74.0432 99.71C74.3355 99.71 74.5724 99.9469 74.5724 100.239C74.5724 102.357 73.1227 104.11 71.2798 104.11C69.4369 104.11 67.9872 102.357 67.9872 100.239C67.9872 99.9469 68.2242 99.71 68.5164 99.71C68.8087 99.71 69.0456 99.9469 69.0456 100.239C69.0456 101.812 70.0706 103.051 71.2798 103.051C72.4891 103.051 73.514 101.812 73.514 100.239C73.514 99.9469 73.751 99.71 74.0432 99.71Z" fill="black"/>
<path d="M53.6687 93.319C55.798 92.4203 58.0526 92.5104 60.1837 93.1949C60.7962 93.3917 61.2536 93.5904 61.5157 93.7288C61.7882 93.8726 61.8925 94.21 61.7488 94.4825C61.605 94.755 61.2675 94.8593 60.9951 94.7155L60.855 94.6474C60.8117 94.6274 60.7604 94.6043 60.7015 94.5787C60.4503 94.4696 60.1622 94.3598 59.8425 94.2572C57.9431 93.647 55.9495 93.5674 54.1026 94.3469C53.7655 94.4892 53.4369 94.6595 53.1175 94.8592C52.8563 95.0224 52.5121 94.943 52.3488 94.6818C52.1855 94.4205 52.2649 94.0764 52.5262 93.9131C52.8961 93.6819 53.2773 93.4843 53.6687 93.319Z" fill="black"/>
<path fill-rule="evenodd" clip-rule="evenodd" d="M83.7348 220.622C93.5283 221.274 117.471 282.842 126.503 304.852C125.385 309.319 118.342 317.258 118.342 317.258C118.342 317.258 119.145 320.795 119.64 322.919C111.37 329.884 95.2643 333.802 95.2643 333.802V336.849C69.5806 349.038 34.8717 338.044 34.8717 338.044C34.8717 338.044 34.2181 337.391 34.6539 334.997C22.9283 334.997 -2.34603 320.414 -2.34603 320.414L1.13633 313.015L-9.31073 302.566C-9.31073 302.566 22.6141 247.969 28.0526 235.966C34.1103 222.597 40.8033 220.115 40.8033 220.115C40.8033 220.115 66.3562 219.462 83.7348 220.622Z" fill="#002AB3"/>
<path d="M28.6025 254.932C28.7058 254.715 28.9651 254.623 29.1818 254.727C29.3768 254.819 29.4707 255.039 29.4123 255.24L29.3871 255.306L-1.36541 319.841L-0.978649 320.119L-0.650651 320.349C0.177294 320.923 1.15302 321.563 2.27022 322.253C5.46541 324.226 9.15106 326.2 13.2766 328.042C19.8999 331 27.0111 333.328 34.5186 334.789C34.7542 334.835 34.9081 335.063 34.8622 335.298C34.8164 335.534 34.5883 335.688 34.3527 335.642C26.777 334.168 19.6034 331.819 12.9222 328.836C8.75996 326.977 5.04045 324.985 1.81356 322.992C0.808653 322.372 -0.084084 321.79 -0.860269 321.26L-1.14587 321.063C-1.32275 320.94 -1.48545 320.826 -1.6338 320.72L-2.04732 320.42C-2.10526 320.377 -2.14806 320.345 -2.17554 320.324C-2.31846 320.215 -2.37739 320.031 -2.33067 319.863L-2.30411 319.792L28.6025 254.932Z" fill="black"/>
<path d="M91.0845 249.273C91.2856 249.195 91.51 249.276 91.6166 249.456L91.6476 249.52L120.481 323.196C120.555 323.386 120.488 323.601 120.319 323.715L120.117 323.848C119.952 323.955 119.759 324.079 119.536 324.218L118.968 324.569C118.474 324.87 117.928 325.192 117.335 325.532C114.962 326.889 112.305 328.246 109.425 329.513C104.857 331.522 100.167 333.11 95.4641 334.119C95.2295 334.169 94.9984 334.019 94.9481 333.785C94.8978 333.55 95.0473 333.319 95.282 333.269C99.9233 332.274 104.558 330.704 109.075 328.717C111.925 327.464 114.556 326.12 116.903 324.777C117.724 324.308 118.451 323.872 119.075 323.481L119.543 323.184L90.8382 249.836C90.7594 249.635 90.8409 249.411 91.0209 249.304L91.0845 249.273Z" fill="black"/>
<path d="M74.8295 232.276C75.0644 232.227 75.2948 232.377 75.344 232.612L76.913 240.165C77.4708 242.865 78.0651 245.755 78.6898 248.808L79.2601 251.599C81.9711 264.889 84.6821 278.445 87.2392 291.596L87.8752 294.875C88.3449 297.303 88.8055 299.697 89.2563 302.056L90.2323 307.187C92.3383 318.315 94.1755 328.399 95.6919 337.211C95.7278 337.42 95.608 337.624 95.4082 337.694C93.9531 338.208 92.4769 338.679 90.9806 339.109C75.3918 343.588 58.7685 343.444 43.1161 340.516C40.716 340.066 38.5523 339.585 36.66 339.104L36.024 338.939C35.8212 338.886 35.6275 338.834 35.4431 338.783L34.6849 338.571C34.5099 338.52 34.3836 338.482 34.3077 338.459C34.1184 338.4 33.9959 338.222 34.0014 338.03L34.0105 337.958L49.0361 263.531C49.0836 263.296 49.3128 263.144 49.5481 263.191C49.7598 263.234 49.9043 263.424 49.8964 263.633L49.8881 263.703L34.9411 337.74L35.6727 337.945C36.0364 338.044 36.4373 338.15 36.8743 338.261C38.7491 338.738 40.8947 339.216 43.2759 339.661C58.8067 342.567 75.3009 342.709 90.7406 338.274C91.9245 337.934 93.0956 337.567 94.2532 337.174L94.7722 336.994L94.2121 333.768C92.772 325.54 91.0776 316.307 89.1669 306.233L88.7387 303.981C88.1816 301.056 87.6089 298.074 87.0218 295.04C84.7029 283.054 82.2437 270.68 79.763 258.436L77.2845 246.28L74.4934 232.791C74.4441 232.556 74.5946 232.325 74.8295 232.276Z" fill="black"/>
<path d="M62.4206 233.683C62.6363 233.695 62.8069 233.862 62.8296 234.07L62.8315 234.141L59.0304 305.854C59.0177 306.094 58.8131 306.278 58.5734 306.266C58.3577 306.254 58.1871 306.087 58.1644 305.879L58.1625 305.808L61.9636 234.095C61.9763 233.855 62.1809 233.671 62.4206 233.683Z" fill="black"/>
<path d="M49.6942 222.771C49.769 222.543 50.0146 222.419 50.2426 222.494C50.4479 222.561 50.569 222.767 50.5365 222.973L50.5199 223.042L36.156 266.79C36.0811 267.018 35.8355 267.142 35.6075 267.067C35.4023 267 35.2812 266.794 35.3136 266.587L35.3302 266.519L49.6942 222.771Z" fill="black"/>
</g>
<defs>
<linearGradient id="paint0_linear_1_388" x1="17.1688" y1="149.931" x2="205.606" y2="323.294" gradientUnits="userSpaceOnUse">
<stop stop-color="#C961DE"/>
<stop offset="1" stop-color="#2957A3"/>
</linearGradient>
<clipPath id="clip0_1_388">
<path d="M0 0H264.65V212.725C264.65 285.806 205.406 345.05 132.325 345.05C59.2439 345.05 0 285.806 0 212.725V0Z" fill="white"/>
</clipPath>
</defs>
</svg>
